<?xml version="1.0" standalone="no"?>
<!DOCTYPE svg PUBLIC "-//W3C//DTD SVG 20010904//EN"
 "http://www.w3.org/TR/2001/REC-SVG-20010904/DTD/svg10.dtd">
<svg version="1.0" xmlns="http://www.w3.org/2000/svg"
 width="860.000000pt" height="1285.000000pt" viewBox="0 0 860.000000 1285.000000"
 preserveAspectRatio="xMidYMid meet">

<g transform="translate(0.000000,1285.000000) scale(0.100000,-0.100000)"
fill="#000000" stroke="none">
<path d="M7355 11935 c-3 -14 -7 -36 -10 -50 -4 -18 -1 -25 10 -25 8 0 15 8
15 19 0 10 3 33 6 50 4 20 2 31 -5 31 -6 0 -13 -11 -16 -25z"/>
<path d="M3507 11783 c-7 -12 39 -83 54 -83 6 0 9 8 7 18 -2 9 -10 16 -17 14
-7 -1 -10 2 -7 7 3 5 -2 19 -12 32 -11 12 -22 18 -25 12z"/>
<path d="M6283 11745 c-25 -25 -40 -45 -33 -45 10 0 9 -4 -1 -16 -10 -13 -10
-17 0 -24 10 -6 9 -10 -5 -18 -17 -9 -16 -11 10 -18 21 -5 32 -3 41 9 24 34
123 53 111 22 -4 -12 -2 -13 13 -6 10 6 24 18 32 27 13 16 15 14 20 -17 l6
-34 12 29 c28 68 -29 136 -114 136 -41 0 -51 -5 -92 -45z"/>
<path d="M7305 11725 c-3 -14 -7 -37 -10 -51 -4 -19 -2 -25 7 -21 7 2 13 13
12 25 0 12 3 19 8 16 4 -3 8 9 8 25 0 37 -18 41 -25 6z"/>
<path d="M825 11636 c-16 -7 -38 -23 -48 -34 -23 -25 -61 -153 -84 -277 -11
-61 -23 -96 -37 -110 -25 -25 -34 -121 -16 -156 7 -11 42 -35 78 -52 60 -28
76 -32 162 -32 90 0 100 3 165 35 85 43 103 70 86 133 -7 23 -13 47 -14 52 -2
6 -10 21 -19 35 -9 14 -23 64 -32 111 -21 111 -60 227 -89 257 -24 27 -76 52
-104 52 -10 -1 -31 -7 -48 -14z m27 -122 c12 -14 32 -31 47 -37 26 -11 26 -11
-12 -15 -21 -2 -35 -7 -31 -13 3 -5 0 -18 -7 -27 -11 -13 -8 -12 9 2 22 19 22
19 44 0 20 -17 21 -17 8 -1 -12 16 -12 20 1 28 22 14 49 11 56 -7 3 -9 0 -20
-8 -25 -9 -6 -10 -9 -2 -9 7 0 16 8 22 18 9 16 10 16 17 -2 5 -12 2 -23 -7
-30 -20 -15 -49 -62 -49 -79 0 -7 11 -24 25 -37 29 -28 32 -63 10 -137 -16
-55 -51 -107 -66 -98 -5 4 -9 34 -9 68 0 68 -11 99 -26 76 -10 -15 -10 -18
-13 -99 l-2 -55 -28 33 c-16 19 -34 53 -41 77 -10 36 -9 47 4 74 28 54 31 112
7 151 -26 43 -26 51 -3 43 15 -6 16 -5 2 11 -13 16 -12 20 4 31 14 11 15 14 2
17 -13 3 -13 7 -1 36 17 39 21 39 47 6z"/>
<path d="M4460 11613 c-28 -11 -53 -38 -71 -80 -10 -24 -25 -43 -33 -43 -7 0
-24 -8 -36 -18 -21 -17 -21 -18 -2 -35 18 -16 21 -16 58 -1 53 23 186 23 237
1 29 -12 44 -14 58 -7 31 17 22 40 -21 57 -22 9 -40 22 -40 30 0 63 -88 119
-150 96z"/>
<path d="M3630 11597 c0 -18 57 -83 65 -75 8 7 -45 87 -57 88 -5 0 -8 -6 -8
-13z"/>
<path d="M7252 11488 c-14 -55 2 -75 17 -22 13 47 14 64 2 64 -5 0 -13 -19
-19 -42z"/>
<path d="M5970 11512 c0 -4 -12 -8 -27 -7 -14 0 -28 -6 -31 -13 -4 -12 11 -12
71 5 21 5 23 23 2 23 -8 0 -15 -4 -15 -8z"/>
<path d="M5731 11468 c-27 -6 -40 -13 -34 -19 14 -14 93 1 93 17 0 16 2 16
-59 2z"/>
<path d="M6265 11460 c-11 -5 -32 -9 -47 -9 -31 -1 -43 -18 -57 -84 -16 -69
-1 -101 62 -132 29 -13 67 -28 84 -31 l33 -6 -5 78 -6 79 23 -43 c19 -36 20
-47 11 -72 -9 -23 -8 -30 4 -34 22 -9 23 -8 23 29 0 31 36 124 44 113 2 -1 0
-34 -3 -71 -4 -38 -3 -71 1 -73 12 -8 79 14 123 39 52 30 64 71 42 148 l-16
54 -63 12 c-34 7 -64 11 -65 9 -2 -2 -6 -26 -10 -55 -5 -40 -10 -51 -24 -51
-13 0 -20 -10 -25 -35 -7 -42 -19 -38 -28 9 -5 24 -12 33 -24 32 -14 -1 -18 9
-20 52 -3 55 -12 61 -57 42z"/>
<path d="M5570 11429 c0 -5 -4 -7 -10 -4 -16 10 -80 -6 -80 -20 0 -9 11 -10
50 -2 31 6 50 15 50 23 0 8 -2 14 -5 14 -3 0 -5 -5 -5 -11z"/>
<path d="M3757 11424 c-7 -7 42 -84 53 -84 19 0 16 15 -8 51 -27 39 -34 44
-45 33z m24 -21 c13 -16 12 -17 -3 -4 -17 13 -22 21 -14 21 2 0 10 -8 17 -17z
m27 -48 c-3 -3 -9 2 -12 12 -6 14 -5 15 5 6 7 -7 10 -15 7 -18z"/>
<path d="M5306 11381 c-16 -3 -31 -12 -34 -20 -3 -9 2 -11 14 -8 11 3 34 8 52
12 17 4 32 11 32 16 0 10 -19 10 -64 0z"/>
<path d="M6740 11367 c0 -21 67 -70 76 -56 9 14 -36 50 -54 44 -7 -3 -10 -1
-7 4 3 5 1 12 -5 16 -5 3 -10 0 -10 -8z"/>
<path d="M5092 11338 c-42 -9 -49 -28 -11 -28 11 0 18 4 15 8 -2 4 7 8 21 7
14 0 28 6 30 13 5 14 4 14 -55 0z"/>
<path d="M7201 11276 c-13 -54 -13 -56 -1 -56 9 0 30 61 30 88 0 29 -19 8 -29
-32z"/>
<path d="M1400 11269 c0 -11 15 -19 47 -26 27 -6 50 -9 52 -7 10 10 -16 23
-49 26 -19 2 -38 8 -42 13 -5 6 -8 3 -8 -6z"/>
<path d="M5908 11251 c-21 -14 -37 -32 -38 -38 0 -18 7 -16 48 14 20 15 39 29
41 30 3 2 0 7 -5 12 -5 5 -25 -3 -46 -18z"/>
<path d="M3880 11242 c0 -17 52 -82 61 -77 10 7 7 14 -25 58 -19 26 -36 35
-36 19z"/>
<path d="M6913 11238 c2 -7 11 -12 20 -12 9 1 15 -3 14 -8 -3 -15 40 -41 47
-29 4 5 -10 21 -31 35 -41 29 -57 33 -50 14z"/>
<path d="M1610 11211 c0 -5 20 -14 44 -20 54 -13 56 -13 56 -1 0 5 -17 14 -37
19 -46 13 -63 14 -63 2z"/>
<path d="M4580 11191 c0 -3 -7 -75 -15 -160 -8 -85 -14 -156 -12 -157 8 -8 92
17 137 42 67 35 84 66 75 133 -11 78 -30 100 -112 126 -40 13 -73 20 -73 16z"/>
<path d="M4315 11167 c-48 -15 -74 -56 -82 -129 -4 -45 -2 -57 17 -81 24 -30
101 -69 159 -80 l33 -7 -6 43 c-3 23 -9 82 -12 130 l-7 89 -21 -27 -21 -26 3
50 c4 57 3 57 -63 38z"/>
<path d="M421 11136 c-45 -47 -31 -70 15 -25 32 31 44 59 26 59 -4 0 -23 -15
-41 -34z m39 21 c0 -2 -12 -14 -27 -28 l-28 -24 24 28 c23 25 31 32 31 24z"/>
<path d="M1820 11160 c0 -5 19 -14 43 -21 23 -6 45 -13 50 -16 4 -2 7 2 7 10
0 9 -18 19 -44 26 -54 13 -56 13 -56 1z"/>
<path d="M5741 11131 c-17 -13 -20 -20 -11 -26 7 -4 20 1 32 13 26 26 9 36
-21 13z"/>
<path d="M6534 11133 c3 -10 8 -30 12 -45 3 -16 12 -28 19 -28 9 0 10 10 2 45
-6 27 -16 45 -24 45 -9 0 -12 -7 -9 -17z"/>
<path d="M4018 11123 c-16 -3 -28 -11 -28 -19 0 -10 7 -13 28 -8 45 10 52 13
52 24 0 10 -3 10 -52 3z"/>
<path d="M7090 11115 c0 -8 14 -22 31 -30 26 -14 29 -20 24 -46 -11 -49 13
-33 28 19 14 47 7 67 -16 40 -7 -7 -11 -11 -10 -9 3 4 -43 41 -51 41 -3 0 -6
-7 -6 -15z"/>
<path d="M2034 11108 c-9 -15 1 -20 44 -21 22 -1 38 -5 35 -9 -2 -5 1 -8 6 -8
6 0 11 6 11 13 0 16 -88 39 -96 25z"/>
<path d="M5695 11099 c-10 -15 1 -23 20 -15 9 3 13 10 10 16 -8 13 -22 13 -30
-1z"/>
<path d="M3808 11078 c-21 -6 -38 -15 -38 -20 0 -7 14 -8 38 -4 20 3 43 6 50
6 6 0 12 7 12 15 0 17 -9 17 -62 3z"/>
<path d="M2743 11061 c-33 -20 -36 -29 -47 -130 -3 -31 1 -54 15 -80 10 -20
19 -50 19 -67 0 -24 9 -38 39 -62 22 -18 44 -32 50 -32 22 0 81 63 81 86 0 14
9 42 20 64 16 31 19 55 17 110 -2 61 -6 74 -29 97 -37 36 -119 43 -165 14z"/>
<path d="M4005 11070 c-8 -13 14 -42 25 -35 5 3 11 1 15 -5 3 -5 1 -10 -4 -10
-8 0 -7 -6 1 -19 6 -10 17 -17 25 -14 9 4 4 17 -19 49 -35 49 -34 48 -43 34z"/>
<path d="M3 11041 c0 -11 5 -18 9 -15 4 3 5 11 1 19 -7 21 -12 19 -10 -4z"/>
<path d="M2245 11049 c-6 -9 -2 -11 13 -7 12 4 20 3 17 -2 -5 -9 55 -23 63
-15 10 10 -13 23 -49 30 -25 5 -39 3 -44 -6z"/>
<path d="M3608 11038 c-27 -6 -48 -16 -48 -23 0 -9 11 -10 50 -2 31 6 50 15
50 23 0 8 -1 13 -2 13 -2 -1 -24 -6 -50 -11z"/>
<path d="M6165 11004 c-18 -43 -18 -51 -4 -60 8 -4 9 1 4 16 -4 14 -3 20 2 17
10 -6 33 33 33 53 0 23 -21 7 -35 -26z"/>
<path d="M5547 10994 c-21 -14 -35 -29 -32 -35 7 -10 14 -7 58 25 26 19 35 36
19 36 -4 0 -24 -11 -45 -26z"/>
<path d="M270 10970 c-20 -26 -27 -40 -18 -40 18 0 81 64 72 73 -13 13 -22 7
-54 -33z"/>
<path d="M2460 10999 c0 -5 5 -7 10 -4 6 3 10 8 10 11 0 2 -4 4 -10 4 -5 0
-10 -5 -10 -11z"/>
<path d="M3378 10993 c-17 -3 -28 -11 -28 -20 0 -9 6 -13 14 -10 8 3 31 9 50
13 20 3 36 10 36 15 0 9 -22 10 -72 2z"/>
<path d="M7267 10993 c-4 -3 11 -19 34 -36 26 -19 44 -26 50 -20 6 6 -4 19
-30 36 -45 30 -45 30 -54 20z"/>
<path d="M3195 10949 c-4 -6 -4 -13 -1 -16 8 -8 36 5 36 17 0 13 -27 13 -35
-1z"/>
<path d="M6590 10944 c0 -27 25 -94 35 -94 8 0 11 8 8 20 -3 11 -10 17 -15 14
-6 -4 -8 1 -4 13 7 23 -2 53 -15 53 -5 0 -9 -3 -9 -6z"/>
<path d="M86 10932 c-7 -11 62 -78 70 -69 8 8 -43 77 -56 77 -5 0 -11 -4 -14
-8z"/>
<path d="M1093 10928 c2 -7 10 -12 16 -10 7 1 10 -1 7 -6 -9 -14 25 -55 36
-44 7 7 2 21 -13 41 -22 30 -55 43 -46 19z"/>
<path d="M750 10890 c8 -5 10 -10 3 -10 -6 0 -9 -9 -6 -20 8 -30 23 -24 23 10
0 22 -5 30 -17 30 -15 0 -16 -2 -3 -10z"/>
<path d="M4133 10894 c-8 -4 -1 -20 20 -50 18 -26 35 -40 40 -35 12 12 -32 73
-46 64 -6 -4 -8 0 -4 10 3 10 5 17 4 16 -1 0 -7 -3 -14 -5z"/>
<path d="M5381 10879 c-13 -11 -31 -24 -39 -28 -8 -5 -12 -13 -8 -20 9 -14 86
36 86 55 0 19 -11 17 -39 -7z"/>
<path d="M7113 10886 c3 -8 2 -16 -2 -18 -13 -5 -24 -68 -12 -68 14 0 19 11
27 58 5 30 3 42 -6 42 -7 0 -10 -6 -7 -14z"/>
<path d="M7445 10869 c-4 -6 -5 -11 -4 -13 2 -1 21 -14 41 -29 22 -16 39 -23
43 -17 9 15 -5 32 -22 26 -8 -3 -12 -2 -9 3 3 5 -5 16 -19 25 -16 10 -26 12
-30 5z"/>
<path d="M130 10815 c-22 -22 -30 -39 -24 -44 5 -6 21 5 42 29 41 49 26 61
-18 15z m40 22 c0 -2 -10 -12 -22 -23 l-23 -19 19 23 c18 21 26 27 26 19z"/>
<path d="M4216 10799 c-17 -25 -24 -45 -18 -51 5 -5 19 7 36 33 17 25 24 45
18 51 -5 5 -19 -7 -36 -33z m34 17 c0 -2 -8 -10 -17 -17 -16 -13 -17 -12 -4 4
13 16 21 21 21 13z"/>
<path d="M6081 10798 c-18 -42 -18 -58 -1 -58 7 0 23 42 24 65 1 6 5 13 10 16
4 4 3 10 -3 13 -7 5 -18 -9 -30 -36z"/>
<path d="M227 10773 c-8 -13 59 -86 72 -79 7 5 0 20 -21 46 -33 40 -43 46 -51
33z"/>
<path d="M1220 10766 c0 -17 25 -38 34 -29 4 4 4 0 1 -8 -7 -19 20 -45 30 -30
6 11 -44 81 -57 81 -5 0 -8 -6 -8 -14z"/>
<path d="M5187 10741 c-21 -16 -33 -32 -28 -35 13 -8 93 43 85 55 -8 14 -16
11 -57 -20z m53 15 c0 -2 -7 -7 -16 -10 -8 -3 -12 -2 -9 4 6 10 25 14 25 6z"/>
<path d="M7626 10741 c-9 -15 23 -36 35 -24 8 8 5 14 -9 22 -12 6 -23 7 -26 2z"/>
<path d="M2623 10715 c-34 -16 -59 -35 -73 -57 -25 -41 -26 -108 -2 -137 23
-27 128 -81 159 -81 23 0 24 3 17 33 -4 17 -14 82 -23 144 -9 61 -19 114 -21
116 -3 3 -29 -6 -57 -18z"/>
<path d="M2936 10618 c-10 -67 -22 -134 -27 -150 -7 -26 -6 -28 20 -28 31 0
114 40 148 72 25 23 39 75 28 107 -11 37 -58 83 -103 102 -24 11 -45 19 -46
19 -1 0 -11 -55 -20 -122z"/>
<path d="M6654 10709 c3 -17 6 -36 6 -41 0 -5 4 -6 10 -3 6 3 7 -1 4 -9 -3 -9
-1 -16 5 -16 14 0 14 13 -1 61 -13 47 -33 53 -24 8z"/>
<path d="M760 10670 c0 -27 4 -50 8 -50 5 0 10 23 11 50 1 28 -3 50 -9 50 -5
0 -10 -22 -10 -50z"/>
<path d="M4258 10714 c-10 -9 11 -46 22 -39 6 3 7 0 4 -8 -6 -16 23 -44 34
-32 4 4 1 10 -6 12 -6 3 -10 8 -8 12 7 10 -38 64 -46 55z"/>
<path d="M7665 10711 c-6 -11 33 -36 42 -27 7 7 -16 36 -28 36 -4 0 -10 -4
-14 -9z"/>
<path d="M9 10688 c-4 -19 -9 -51 -6 -47 1 2 8 11 15 21 9 11 10 18 2 23 -5 3
-10 5 -11 3z"/>
<path d="M7052 10643 c-6 -26 -9 -50 -6 -52 9 -9 23 15 29 50 10 56 -12 57
-23 2z"/>
<path d="M2800 10654 c-8 -8 -15 -43 -17 -77 -1 -34 -5 -81 -8 -104 l-5 -43
46 0 46 0 -7 108 c-8 125 -23 156 -55 116z"/>
<path d="M4099 10628 c-13 -18 -24 -38 -25 -45 -4 -22 14 -14 34 15 30 43 33
50 23 56 -5 4 -20 -8 -32 -26z"/>
<path d="M5046 10642 c-3 -6 -1 -14 5 -17 15 -10 25 3 12 16 -7 7 -13 7 -17 1z"/>
<path d="M6001 10603 c-7 -21 -15 -44 -17 -50 -3 -7 -1 -13 6 -13 13 0 51 80
44 92 -10 17 -21 7 -33 -29z"/>
<path d="M5011 10617 c-6 -8 -8 -17 -4 -21 4 -4 0 -4 -10 0 -16 6 -24 -6 -11
-19 9 -8 64 34 58 45 -8 12 -20 10 -33 -5z"/>
<path d="M7800 10610 c0 -13 79 -60 85 -50 3 5 -8 19 -25 31 -31 24 -60 33
-60 19z"/>
<path d="M370 10603 c0 -15 52 -73 66 -73 22 0 17 13 -19 48 -32 31 -47 39
-47 25z"/>
<path d="M1355 10601 c-8 -14 44 -83 56 -75 5 3 1 19 -8 35 -23 40 -39 53 -48
40z"/>
<path d="M4505 10563 c-11 -3 -26 -13 -33 -22 -8 -9 -10 -10 -6 -2 6 11 3 13
-12 6 -10 -5 -31 -9 -46 -10 -42 -4 -44 -5 -30 -13 9 -7 5 -17 -18 -43 -42
-48 -72 -114 -78 -170 -5 -57 6 -129 17 -110 5 8 8 2 8 -16 0 -15 3 -35 7 -44
5 -10 -1 -19 -19 -29 -14 -7 -25 -19 -25 -27 0 -18 10 -16 38 5 23 18 24 18
58 -16 21 -21 40 -32 50 -28 8 3 12 2 9 -4 -10 -16 56 -42 120 -47 64 -6 150
12 140 27 -3 6 1 7 10 4 23 -9 96 56 129 116 34 62 44 149 26 215 -7 24 -17
42 -22 39 -5 -3 -3 -13 4 -22 12 -15 11 -16 -4 -3 -13 9 -15 18 -8 31 6 11 5
21 -3 29 -8 8 -6 14 8 25 47 33 69 55 63 62 -4 4 -25 -5 -46 -20 -47 -32 -51
-32 -81 0 -13 13 -44 34 -68 45 -44 20 -151 33 -188 22z m95 -7 c0 -8 -49 -13
-60 -6 -6 4 5 7 25 8 19 1 35 0 35 -2z m45 -16 c-3 -5 -12 -10 -18 -10 -7 0
-6 4 3 10 19 12 23 12 15 0z m111 -73 c1 -7 -7 -13 -18 -13 -17 0 -17 2 -4 12
9 6 14 14 11 17 -3 4 -2 5 2 2 4 -3 8 -11 9 -18z m94 19 c0 -2 -8 -10 -17 -17
-16 -13 -17 -12 -4 4 13 16 21 21 21 13z m-500 -61 c-7 -8 -16 -15 -21 -15 -5
0 -1 8 9 18 20 22 31 19 12 -3z m44 -1 c3 -8 2 -12 -4 -9 -6 3 -10 10 -10 16
0 14 7 11 14 -7z m-97 -106 c-3 -8 -6 -5 -6 6 -1 11 2 17 5 13 3 -3 4 -12 1
-19z m223 -23 c7 -9 8 -15 2 -15 -5 0 -12 7 -16 15 -3 8 -4 15 -2 15 2 0 9 -7
16 -15z m307 -127 c-3 -8 -6 -5 -6 6 -1 11 2 17 5 13 3 -3 4 -12 1 -19z m-179
-53 c-3 -3 -9 2 -12 12 -6 14 -5 15 5 6 7 -7 10 -15 7 -18z m162 11 c0 -2 -7
-7 -16 -10 -8 -3 -12 -2 -9 4 6 10 25 14 25 6z m-441 -27 c-16 -10 -23 -4 -14
10 3 6 11 8 17 5 6 -4 5 -9 -3 -15z m26 -38 c-6 -5 -25 10 -25 20 0 5 6 4 14
-3 8 -7 12 -15 11 -17z m368 11 c-5 -11 -7 -11 -14 0 -7 11 -9 10 -9 -1 0 -8
-3 -12 -6 -8 -9 9 3 24 20 24 8 0 12 -6 9 -15z m-220 -69 c-7 -2 -19 -2 -25 0
-7 3 -2 5 12 5 14 0 19 -2 13 -5z"/>
<path d="M8557 10549 c-45 -34 -69 -93 -75 -185 -2 -45 -2 -94 2 -109 l7 -27
22 34 c13 18 37 42 54 53 l32 20 1 118 c0 64 -3 117 -7 117 -5 0 -21 -10 -36
-21z"/>
<path d="M6712 10490 c6 -23 15 -37 21 -33 6 4 8 0 4 -10 -4 -10 -2 -17 4 -17
7 0 9 9 5 23 -3 12 -6 28 -6 35 0 7 -4 11 -9 8 -5 -4 -7 3 -4 14 4 13 0 20
-10 20 -12 0 -13 -7 -5 -40z"/>
<path d="M770 10481 c0 -34 12 -81 22 -81 5 0 8 18 6 40 -1 22 -6 40 -11 40
-4 0 -5 5 -2 10 3 6 1 10 -4 10 -6 0 -11 -8 -11 -19z"/>
<path d="M7980 10485 c0 -9 5 -15 11 -13 6 2 11 8 11 13 0 5 -5 11 -11 13 -6
2 -11 -4 -11 -13z"/>
<path d="M3967 10440 c-30 -43 -32 -50 -14 -50 17 0 39 38 31 52 -4 6 -3 8 3
5 6 -4 16 -1 22 7 9 10 8 15 -1 19 -8 2 -26 -12 -41 -33z"/>
<path d="M7002 10432 c-11 -50 -10 -58 8 -47 7 4 10 16 7 26 -3 11 -1 19 4 19
11 0 12 37 1 44 -5 3 -14 -16 -20 -42z"/>
<path d="M8006 10471 c-8 -12 42 -44 55 -36 5 4 -1 15 -15 26 -27 21 -32 23
-40 10z"/>
<path d="M518 10444 c-11 -10 11 -46 24 -38 6 4 8 3 5 -3 -4 -6 2 -18 12 -27
11 -10 21 -13 24 -9 7 12 -56 87 -65 77z"/>
<path d="M1486 10431 c-10 -15 40 -81 61 -81 14 0 14 2 0 23 -8 12 -21 21 -27
19 -6 -1 -9 1 -6 6 3 5 -1 17 -8 27 -9 13 -15 15 -20 6z"/>
<path d="M5921 10402 c-7 -20 -15 -43 -18 -51 -3 -8 0 -12 6 -10 7 3 21 23 31
46 14 32 15 43 6 46 -8 3 -18 -9 -25 -31z"/>
<path d="M6760 10318 c3 -43 50 -127 50 -89 0 6 -4 11 -9 11 -5 0 -7 9 -4 20
3 11 1 20 -5 20 -6 0 -8 9 -5 20 4 14 0 20 -11 20 -9 0 -16 -1 -16 -2z"/>
<path d="M3844 10260 c-15 -22 -24 -43 -21 -47 9 -8 29 10 50 46 27 46 2 48
-29 1z m26 6 c0 -2 -8 -10 -17 -17 -16 -13 -17 -12 -4 4 13 16 21 21 21 13z"/>
<path d="M790 10234 c0 -30 4 -53 8 -50 13 8 15 106 2 106 -6 0 -10 -23 -10
-56z"/>
<path d="M650 10273 c1 -18 68 -84 75 -73 9 14 -14 42 -28 33 -6 -3 -7 -1 -3
6 4 6 2 18 -4 26 -13 16 -40 21 -40 8z"/>
<path d="M2865 10260 c3 -5 1 -10 -4 -10 -6 0 -11 -18 -11 -40 0 -23 5 -40 11
-40 6 0 9 9 6 20 -3 11 -1 23 4 26 13 7 11 54 -2 54 -5 0 -7 -4 -4 -10z"/>
<path d="M1616 10252 c-7 -12 54 -83 65 -76 5 3 -3 23 -18 44 -28 40 -38 47
-47 32z"/>
<path d="M6952 10218 c-7 -26 -8 -46 -2 -52 10 -10 13 -5 29 57 7 29 6 37 -4
37 -7 0 -17 -19 -23 -42z"/>
<path d="M5840 10202 c-7 -21 -15 -43 -18 -51 -13 -33 21 -2 38 36 14 31 15
43 6 46 -8 3 -18 -10 -26 -31z"/>
<path d="M796 10112 c-3 -6 -2 -13 4 -17 5 -3 7 -17 4 -31 -8 -30 4 -94 16
-94 14 0 12 57 -1 83 -11 22 -11 22 14 -1 41 -38 46 -6 5 35 -21 21 -38 31
-42 25z"/>
<path d="M3723 10085 c-24 -37 -29 -55 -14 -55 12 0 61 77 54 84 -11 11 -18 6
-40 -29z"/>
<path d="M6823 10097 c3 -9 9 -32 13 -51 6 -34 14 -43 26 -31 9 10 -18 89 -32
93 -9 3 -11 -1 -7 -11z"/>
<path d="M1746 10082 c-6 -11 60 -89 69 -80 7 7 -45 87 -57 88 -4 0 -9 -4 -12
-8z m55 -59 c13 -16 12 -17 -3 -4 -17 13 -22 21 -14 21 2 0 10 -8 17 -17z"/>
<path d="M2840 10033 c0 -16 -3 -38 -6 -50 -5 -17 -2 -23 10 -23 13 0 16 11
16 50 0 28 -4 50 -10 50 -5 0 -10 -12 -10 -27z"/>
<path d="M6901 10006 c-14 -56 -14 -59 1 -54 17 6 39 98 23 98 -7 0 -18 -20
-24 -44z"/>
<path d="M5755 9993 c-23 -54 -8 -80 15 -28 21 46 24 65 10 65 -5 0 -17 -17
-25 -37z"/>
<path d="M8529 9995 c-13 -20 -35 -38 -49 -41 -61 -13 -111 -38 -135 -66 -58
-69 -75 -166 -40 -226 14 -23 41 -43 95 -68 72 -34 184 -63 197 -50 4 3 0 18
-8 33 -11 20 -11 27 -1 30 14 5 17 73 2 73 -5 0 -10 9 -10 20 0 11 5 20 10 20
6 0 10 38 10 93 0 87 -2 95 -26 117 -21 21 -24 30 -19 62 4 21 5 38 2 38 -2 0
-15 -16 -28 -35z"/>
<path d="M4128 9993 c-35 -24 -49 -43 -30 -43 16 0 82 52 77 61 -7 11 -3 13
-47 -18z"/>
<path d="M4755 10000 c-3 -5 8 -28 24 -50 16 -22 32 -36 36 -30 9 14 -27 71
-42 66 -7 -3 -10 1 -6 10 6 16 -3 19 -12 4z"/>
<path d="M940 9941 c0 -13 50 -71 61 -71 16 0 10 17 -17 49 -25 31 -44 40 -44
22z"/>
<path d="M3597 9900 c-15 -21 -23 -42 -17 -45 10 -6 60 55 60 73 0 23 -18 12
-43 -28z m21 0 c-7 -10 -14 -17 -17 -15 -4 4 18 35 25 35 2 0 -1 -9 -8 -20z"/>
<path d="M6923 9928 c-273 -28 -478 -275 -460 -554 3 -45 15 -108 27 -140 12
-33 22 -66 24 -74 2 -16 18 -35 105 -132 29 -33 49 -63 43 -67 -5 -3 -12 -22
-16 -41 -3 -19 -3 -29 0 -22 3 6 10 10 15 6 5 -3 9 4 9 15 0 10 3 27 6 35 6
15 10 14 43 -5 208 -124 502 -79 664 101 215 239 168 618 -99 795 -104 69
-225 97 -361 83z m135 -102 c15 -8 45 -34 68 -59 22 -24 47 -46 55 -49 12 -4
12 -7 1 -21 -11 -13 -10 -17 4 -25 19 -11 11 -32 -12 -32 -8 0 -12 -4 -9 -10
3 -5 15 -10 26 -10 29 0 23 -20 -11 -33 -16 -6 -30 -17 -30 -23 0 -6 -6 -17
-14 -23 -19 -16 -47 -106 -40 -125 3 -8 48 -31 99 -51 127 -50 165 -92 165
-186 0 -60 -25 -109 -66 -128 -31 -14 -44 -3 -44 38 0 61 -36 111 -56 79 -4
-7 -3 -8 4 -4 16 9 16 -48 1 -76 -14 -26 -3 -35 23 -19 20 12 21 12 14 -20 -3
-18 -12 -36 -18 -40 -12 -8 -105 -25 -171 -33 l-39 -4 7 35 c7 40 -2 93 -16
93 -6 0 -8 -16 -4 -38 11 -78 -73 -106 -202 -65 -57 18 -69 33 -27 33 24 0 24
1 10 22 -9 12 -16 38 -16 58 0 27 -4 36 -18 37 -14 1 -17 -6 -14 -40 4 -60 -7
-73 -47 -53 -51 27 -79 101 -61 167 16 58 62 105 128 129 99 36 131 52 135 69
4 21 -22 101 -39 122 -9 10 -15 48 -17 113 l-2 97 40 34 c61 53 138 69 193 41z"/>
<path d="M6854 9596 c3 -12 6 -26 6 -33 0 -20 30 -43 55 -43 15 0 33 12 50 33
23 28 27 30 35 15 19 -31 41 -48 65 -48 25 0 55 23 55 43 0 7 3 21 6 33 5 20
2 20 -136 20 -138 0 -141 0 -136 -20z"/>
<path d="M7155 9180 c-3 -6 1 -7 9 -4 18 7 21 14 7 14 -6 0 -13 -4 -16 -10z"/>
<path d="M6800 9156 c0 -2 8 -10 18 -17 15 -13 16 -12 3 4 -13 16 -21 21 -21
13z"/>
<path d="M6686 9134 c-9 -24 -2 -26 12 -4 7 11 8 20 3 20 -5 0 -12 -7 -15 -16z"/>
<path d="M7048 9133 c6 -2 18 -2 25 0 6 3 1 5 -13 5 -14 0 -19 -2 -12 -5z"/>
<path d="M7030 9100 c-9 -6 -10 -10 -3 -10 6 0 15 5 18 10 8 12 4 12 -15 0z"/>
<path d="M1885 9910 c-8 -13 20 -59 41 -67 7 -3 11 -10 7 -17 -4 -8 -2 -8 7 1
14 13 4 37 -12 27 -7 -4 -8 -2 -4 5 4 6 -2 23 -13 36 -12 16 -22 22 -26 15z"/>
<path d="M3941 9861 c-19 -15 -30 -31 -24 -34 10 -7 83 41 83 55 0 16 -25 7
-59 -21z"/>
<path d="M821 9800 c-1 -30 2 -50 9 -50 5 0 10 22 10 50 0 28 -4 50 -8 50 -5
0 -9 -22 -11 -50z"/>
<path d="M2768 9839 c-70 -8 -143 -28 -215 -61 -46 -20 -58 -33 -20 -23 17 5
19 4 7 -4 -8 -6 -22 -8 -31 -6 -8 3 -24 -2 -35 -11 -10 -8 -12 -13 -4 -9 10 4
9 2 -2 -8 -10 -8 -14 -18 -10 -22 4 -5 1 -5 -6 -1 -7 4 -10 13 -6 19 3 7 -4 1
-15 -12 -12 -13 -21 -20 -21 -15 0 4 -18 -10 -41 -31 -56 -54 -141 -176 -134
-193 3 -8 0 -10 -7 -6 -8 5 -9 2 -5 -10 4 -9 3 -15 -2 -12 -13 8 -40 -76 -35
-110 3 -23 2 -25 -4 -9 -8 16 -10 14 -16 -15 -17 -86 -18 -197 -1 -285 18 -96
87 -261 105 -250 5 3 7 0 5 -7 -7 -17 103 -141 116 -132 5 3 8 1 7 -4 -7 -23
142 -119 164 -106 7 4 8 3 4 -4 -10 -16 140 -60 233 -68 82 -7 245 11 236 26
-3 5 5 6 17 2 16 -4 19 -2 13 8 -5 9 -4 11 4 6 13 -8 78 10 86 25 3 5 0 6 -8
3 -8 -3 -17 -2 -20 3 -3 4 6 9 19 9 15 1 24 -4 24 -13 0 -8 5 -13 11 -11 6 2
9 7 7 10 -2 4 6 14 17 23 11 9 15 14 8 10 -13 -6 -10 32 3 44 4 3 5 -2 1 -11
-3 -9 0 -19 8 -21 16 -7 131 86 127 102 -1 7 2 10 7 7 15 -10 72 69 60 81 -8
8 -6 11 7 10 12 -1 19 4 18 15 -1 10 2 16 6 13 23 -14 105 220 98 280 -2 19 0
35 4 35 4 0 8 19 8 43 0 23 -4 37 -8 30 -4 -6 -7 17 -7 50 0 84 -51 244 -71
224 -4 -3 -1 -14 7 -24 9 -11 10 -14 2 -9 -20 12 -37 47 -21 44 8 -2 12 5 10
17 -5 36 -11 45 -27 39 -8 -3 -12 -10 -9 -15 3 -5 -2 -6 -11 -3 -14 6 -14 8 2
19 16 12 14 16 -17 59 -35 45 -52 58 -48 34 5 -21 -39 -21 -46 -1 -6 14 -5 16
5 6 7 -7 20 -13 28 -13 11 0 9 5 -7 20 -28 27 -29 39 -1 14 12 -10 20 -14 18
-8 -2 6 -28 32 -58 57 -140 119 -340 178 -533 156z m209 -15 c-3 -3 -12 -4
-19 -1 -8 3 -5 6 6 6 11 1 17 -2 13 -5z m-362 -44 c3 -6 -1 -7 -9 -4 -18 7
-21 14 -7 14 6 0 13 -4 16 -10z m535 -10 c18 -12 2 -12 -25 0 -13 6 -15 9 -5
9 8 0 22 -4 30 -9z m-560 -4 c0 -2 -7 -7 -16 -10 -8 -3 -12 -2 -9 4 6 10 25
14 25 6z m630 -57 c-6 -10 -13 -19 -16 -19 -2 0 0 8 5 19 6 10 7 22 3 26 -4 5
-1 5 6 1 9 -5 9 -12 2 -27z m-335 2 c3 -5 2 -12 -3 -15 -5 -3 -9 1 -9 9 0 17
3 19 12 6z m399 -30 c13 -14 14 -21 5 -27 -7 -4 -10 -3 -5 4 3 6 -4 18 -16 26
-12 9 -18 16 -12 16 6 0 19 -9 28 -19z m-543 -22 c-16 -10 -37 -30 -47 -44
-19 -29 -29 -32 -38 -9 -5 14 -4 15 9 4 21 -17 19 -1 -2 24 -18 21 -18 21 2 4
20 -16 22 -16 55 16 19 19 39 31 43 29 5 -3 -5 -13 -22 -24z m72 24 c-7 -2
-19 -2 -25 0 -7 3 -2 5 12 5 14 0 19 -2 13 -5z m133 -9 c10 -8 13 -12 6 -9 -8
4 -26 11 -40 15 -22 7 -23 8 -6 9 11 1 29 -6 40 -15z m48 -19 c3 -8 1 -15 -4
-15 -6 0 -10 7 -10 15 0 8 2 15 4 15 2 0 6 -7 10 -15z m320 -10 c-4 -8 -11
-15 -16 -15 -6 0 -5 6 2 15 7 8 14 15 16 15 2 0 1 -7 -2 -15z m-928 -30 c-4
-38 -12 -39 -12 -1 0 19 4 32 8 30 3 -2 5 -16 4 -29z m631 19 c-3 -4 0 -13 8
-21 8 -8 15 -19 15 -25 0 -6 -9 0 -19 13 -17 22 -19 39 -4 39 4 0 4 -3 0 -6z
m-660 -24 c-2 -11 -7 -23 -12 -27 -4 -5 -5 -2 -1 5 4 6 2 12 -4 12 -7 0 -6 5
2 15 17 19 18 19 15 -5z m941 -15 c-3 -3 -9 2 -12 12 -6 14 -5 15 5 6 7 -7 10
-15 7 -18z m108 -37 l29 -33 -32 29 c-31 28 -38 36 -30 36 2 0 16 -15 33 -32z
m-1096 -8 c0 -5 -2 -10 -4 -10 -3 0 -8 5 -11 10 -3 6 -1 10 4 10 6 0 11 -4 11
-10z m747 -22 c-3 -8 -6 -5 -6 6 -1 11 2 17 5 13 3 -3 4 -12 1 -19z m327 6 c3
-8 2 -12 -4 -9 -6 3 -10 10 -10 16 0 14 7 11 14 -7z m-737 -81 c-2 -16 -4 -3
-4 27 0 30 2 43 4 28 2 -16 2 -40 0 -55z m420 5 c-2 -13 -4 -5 -4 17 -1 22 1
32 4 23 2 -10 2 -28 0 -40z m-10 -60 c-3 -7 -5 -2 -5 12 0 14 2 19 5 13 2 -7
2 -19 0 -25z m-400 2 c-2 -11 -6 -22 -9 -26 -4 -3 -5 2 -3 13 2 10 4 21 4 26
1 4 3 7 6 7 3 0 4 -9 2 -20z m355 -31 c-31 -47 -78 -61 -118 -35 -14 10 -28
24 -31 32 -4 10 -12 6 -34 -17 -26 -28 -34 -31 -67 -26 -20 4 -41 14 -47 23
-5 10 -18 25 -27 35 -12 12 -13 19 -5 22 7 3 89 5 183 5 l171 -1 -25 -38z
m495 -11 c-3 -8 -6 -5 -6 6 -1 11 2 17 5 13 3 -3 4 -12 1 -19z m-855 -80 c-8
-8 -9 -4 -5 13 4 13 8 18 11 10 2 -7 -1 -18 -6 -23z m411 7 c4 -8 2 -17 -3
-20 -6 -4 -10 3 -10 14 0 25 6 27 13 6z m-416 -102 c-2 -16 -4 -3 -4 27 0 30
2 43 4 28 2 -16 2 -40 0 -55z m420 10 c-3 -10 -5 -4 -5 12 0 17 2 24 5 18 2
-7 2 -21 0 -30z m-10 -45 c-3 -8 -6 -5 -6 6 -1 11 2 17 5 13 3 -3 4 -12 1 -19z
m-394 -17 c3 -11 -1 -22 -8 -24 -8 -4 -10 3 -7 19 5 29 8 30 15 5z m133 -136
c26 -66 50 -123 53 -127 4 -4 31 53 61 127 29 74 57 135 61 135 3 0 12 -7 19
-15 15 -18 50 -20 50 -3 0 6 6 4 13 -7 10 -13 21 -16 41 -11 16 4 25 3 22 -3
-8 -13 22 -23 48 -16 15 5 17 4 7 -3 -15 -11 -1 -24 21 -19 7 2 9 2 5 -1 -5
-2 -1 -13 9 -23 9 -10 21 -16 27 -12 6 3 7 1 3 -5 -4 -6 0 -22 8 -34 41 -63
50 -192 16 -233 -7 -8 -9 -15 -4 -15 5 0 -8 -10 -29 -23 -21 -13 -34 -27 -30
-32 4 -4 3 -5 -4 -1 -13 7 -85 -23 -78 -34 2 -3 -4 -6 -13 -7 -9 0 -51 -9 -92
-18 -73 -17 -97 -17 -352 -2 -14 1 -24 6 -20 11 3 5 -2 6 -12 3 -9 -4 -15 -3
-12 2 8 12 -92 54 -107 45 -7 -4 -9 -4 -6 0 4 4 -11 24 -32 44 -27 27 -40 50
-45 79 -7 46 10 135 33 170 8 12 12 27 8 33 -4 6 -1 9 7 8 7 -2 12 5 12 14 -1
10 2 16 6 13 4 -3 19 4 33 15 14 11 56 27 94 36 37 8 79 21 93 28 14 7 28 10
32 7 3 -3 28 -60 54 -126z m-221 95 c-3 -5 -12 -10 -18 -10 -7 0 -6 4 3 10 19
12 23 12 15 0z m-388 -122 c-3 -8 -6 -5 -6 6 -1 11 2 17 5 13 3 -3 4 -12 1
-19z m1303 -113 c0 -2 -6 -8 -13 -14 -10 -8 -14 -7 -14 2 0 8 6 14 14 14 7 0
13 -1 13 -2z m-1220 -70 c0 -11 -14 7 -31 40 -7 13 -3 12 10 -5 11 -14 21 -29
21 -35z m1145 -55 c-3 -5 -12 -10 -18 -10 -7 0 -6 4 3 10 19 12 23 12 15 0z
m-991 -26 c3 -8 2 -12 -4 -9 -6 3 -10 10 -10 16 0 14 7 11 14 -7z m957 1 c5 4
6 -1 2 -10 -5 -13 -7 -14 -14 -3 -5 7 -8 18 -8 23 0 6 3 4 6 -3 2 -6 9 -10 14
-7z m-997 -64 c-2 -3 -12 3 -22 13 -16 17 -16 18 5 5 12 -7 20 -15 17 -18z
m924 4 c-3 -3 -9 2 -12 12 -6 14 -5 15 5 6 7 -7 10 -15 7 -18z m-28 -50 c-7
-9 -15 -13 -17 -11 -6 6 20 36 26 30 2 -2 -2 -10 -9 -19z m-826 -7 c-5 -8 0
-9 16 -5 16 4 20 3 12 -5 -6 -6 -18 -8 -26 -5 -18 7 -22 27 -5 27 5 0 7 -5 3
-12z m203 -94 c-3 -3 -12 -4 -19 -1 -8 3 -5 6 6 6 11 1 17 -2 13 -5z m360 -20
c-3 -3 -12 -4 -19 -1 -8 3 -5 6 6 6 11 1 17 -2 13 -5z"/>
<path d="M2727 9393 c-15 -14 -6 -44 15 -52 44 -16 97 11 84 44 -6 15 -86 22
-99 8z"/>
<path d="M2890 9390 c-33 -21 26 -63 72 -52 19 5 33 36 23 52 -8 13 -75 13
-95 0z"/>
<path d="M4882 9823 c-15 -6 36 -82 56 -83 18 0 15 11 -16 51 -15 20 -33 34
-40 32z"/>
<path d="M5671 9788 c-12 -29 -15 -45 -8 -50 10 -6 47 60 47 83 0 24 -23 4
-39 -33z"/>
<path d="M7948 9783 c-21 -8 -38 -21 -38 -29 0 -12 6 -12 38 2 20 9 43 18 49
21 13 5 8 23 -5 22 -4 0 -24 -7 -44 -16z"/>
<path d="M1085 9780 c-5 -7 6 -25 27 -47 46 -46 56 -30 13 21 -22 27 -35 35
-40 26z m46 -47 c13 -16 12 -17 -3 -4 -17 13 -22 21 -14 21 2 0 10 -8 17 -17z"/>
<path d="M3768 9741 c-26 -20 -34 -31 -27 -42 8 -13 13 -5 10 14 -1 5 3 6 8 2
14 -8 61 24 61 41 0 20 -10 17 -52 -15z"/>
<path d="M3475 9726 c-15 -19 -24 -40 -20 -46 9 -15 28 -1 21 16 -3 8 -1 13 5
11 15 -3 43 40 30 47 -5 4 -22 -9 -36 -28z m35 20 c0 -2 -8 -10 -17 -17 -16
-13 -17 -12 -4 4 13 16 21 21 21 13z"/>
<path d="M2010 9729 c0 -5 5 -7 12 -3 7 5 9 2 5 -8 -6 -18 25 -52 38 -41 4 5
5 0 2 -9 -4 -12 -2 -15 9 -11 11 4 7 14 -17 44 -30 38 -49 49 -49 28z"/>
<path d="M7775 9707 c-11 -6 -26 -18 -33 -26 -8 -9 -10 -10 -6 -2 4 9 2 12 -6
9 -19 -6 -25 -28 -8 -27 30 1 87 34 80 46 -5 8 -12 9 -27 0z"/>
<path d="M5006 9642 c-6 -11 41 -82 54 -82 16 0 12 13 -15 53 -27 39 -31 42
-39 29z"/>
<path d="M3587 9613 c-24 -17 -34 -30 -28 -36 6 -6 24 1 50 20 23 17 38 33 34
36 -9 10 -14 8 -56 -20z"/>
<path d="M830 9603 c0 -38 10 -73 21 -73 5 0 9 14 9 31 0 16 -4 28 -9 25 -4
-3 -6 6 -3 19 2 15 0 25 -7 25 -6 0 -11 -12 -11 -27z"/>
<path d="M1225 9621 c-7 -13 54 -93 66 -85 14 8 10 17 -25 57 -20 22 -37 34
-41 28z"/>
<path d="M5591 9588 c-18 -41 -18 -58 -3 -58 4 0 15 20 24 45 22 59 4 70 -21
13z"/>
<path d="M7553 9609 c-53 -23 -61 -53 -9 -33 9 3 14 9 12 13 -2 3 7 7 21 7 29
2 40 11 27 23 -5 5 -27 1 -51 -10z"/>
<path d="M8191 9604 c-7 -16 -17 -24 -26 -20 -9 3 -19 -4 -26 -17 -7 -12 -18
-28 -26 -35 -15 -15 -17 -32 -5 -32 16 0 44 38 37 50 -3 6 -3 10 2 9 17 -4 64
21 58 31 -3 5 -2 10 3 10 5 0 9 7 9 15 0 23 -13 18 -26 -11z"/>
<path d="M2147 9563 c-4 -6 5 -26 20 -45 15 -18 28 -35 30 -37 2 -3 8 0 13 5
6 6 -3 24 -24 48 -20 24 -35 35 -39 29z m24 -20 c13 -16 12 -17 -3 -4 -10 7
-18 15 -18 17 0 8 8 3 21 -13z m30 -40 c13 -16 12 -17 -3 -4 -10 7 -18 15 -18
17 0 8 8 3 21 -13z"/>
<path d="M5135 9460 c-8 -14 43 -82 55 -75 6 3 -2 24 -17 45 -28 44 -29 45
-38 30z"/>
<path d="M8100 9430 c-11 -23 -18 -46 -14 -52 6 -10 52 63 54 85 1 21 -22 2
-40 -33z"/>
<path d="M1367 9454 c-4 -4 8 -24 25 -46 21 -27 34 -36 41 -29 13 13 -10 44
-26 34 -5 -3 -7 -1 -4 4 8 12 -26 46 -36 37z"/>
<path d="M5511 9393 c-7 -21 -15 -44 -17 -50 -3 -7 1 -13 9 -13 8 0 19 18 27
43 14 49 14 51 2 55 -5 1 -14 -14 -21 -35z"/>
<path d="M850 9370 c0 -27 5 -50 10 -50 6 0 10 23 10 50 0 28 -4 50 -10 50 -5
0 -10 -22 -10 -50z"/>
<path d="M7993 9375 c-21 -29 -28 -45 -20 -48 16 -5 73 72 61 83 -5 4 -23 -11
-41 -35z"/>
<path d="M1510 9277 c0 -17 58 -73 66 -64 8 8 -43 77 -57 77 -5 0 -9 -6 -9
-13z"/>
<path d="M5250 9283 c0 -14 52 -73 65 -73 11 0 7 11 -13 40 -24 34 -52 53 -52
33z"/>
<path d="M8006 9264 c-3 -9 -3 -21 1 -26 3 -6 2 -8 -4 -5 -6 4 -15 -5 -21 -18
-12 -26 -1 -43 16 -22 19 24 41 75 35 81 -11 10 -21 7 -27 -10z"/>
<path d="M7861 9201 c-20 -25 -28 -42 -21 -46 6 -4 13 -5 14 -4 61 82 64 89
47 89 -5 0 -23 -18 -40 -39z"/>
<path d="M5442 9218 c3 -7 -1 -19 -9 -26 -16 -16 -17 -45 -2 -40 6 2 17 18 24
35 12 27 11 32 -2 37 -9 4 -13 1 -11 -6z"/>
<path d="M10 9211 c0 -11 58 -61 71 -61 17 0 9 14 -23 42 -34 29 -48 34 -48
19z"/>
<path d="M860 9190 c0 -5 5 -10 10 -10 6 0 10 5 10 10 0 6 -4 10 -10 10 -5 0
-10 -4 -10 -10z"/>
<path d="M1647 9123 c-3 -5 10 -25 28 -46 45 -52 65 -39 23 14 -31 39 -43 46
-51 32z m54 -50 c13 -16 12 -17 -3 -4 -10 7 -18 15 -18 17 0 8 8 3 21 -13z"/>
<path d="M4963 9116 c-9 -5 -26 -19 -37 -31 -12 -12 -32 -28 -45 -35 -18 -9
-21 -14 -10 -21 11 -6 10 -9 -3 -14 -18 -7 -13 -45 6 -45 6 0 3 -7 -7 -14 -16
-13 -16 -14 -1 -20 16 -6 16 -7 0 -19 -15 -11 -14 -14 9 -31 16 -12 25 -29 25
-46 0 -38 38 -70 82 -70 29 0 42 7 62 33 l26 32 26 -32 c21 -27 32 -33 64 -33
31 0 43 6 59 29 12 16 21 34 21 40 0 6 4 11 10 11 17 0 23 49 10 80 -10 24
-10 33 0 45 9 10 9 15 1 15 -6 0 -11 13 -11 28 0 27 -19 51 -74 93 -22 16
-185 21 -213 5z m200 -124 c11 -1 26 -19 37 -44 34 -79 33 -80 -40 -86 -119
-9 -236 -1 -234 17 1 6 2 23 3 37 0 14 13 38 29 52 25 25 33 27 107 26 44 0
88 -1 98 -2z m-127 -156 c3 -8 0 -24 -6 -36 -9 -17 -19 -21 -53 -18 -39 3 -42
5 -45 36 l-3 32 51 0 c34 0 52 -5 56 -14z m174 -9 c0 -32 -18 -47 -57 -47 -22
0 -36 6 -43 21 -19 35 -6 49 50 49 46 0 50 -2 50 -23z"/>
<path d="M6390 9089 c0 -5 -4 -8 -9 -4 -14 8 -61 -16 -61 -31 0 -10 11 -8 42
6 41 18 62 40 39 40 -6 0 -11 -5 -11 -11z"/>
<path d="M7909 9077 c-1 -7 -1 -18 0 -26 2 -7 -2 -10 -7 -7 -5 3 -14 -6 -20
-19 -20 -44 6 -36 31 9 20 36 22 46 11 50 -8 3 -15 0 -15 -7z"/>
<path d="M176 9071 c-7 -11 39 -43 48 -34 7 7 -23 43 -35 43 -4 0 -10 -4 -13
-9z"/>
<path d="M7759 9063 c-1 -4 -1 -12 0 -16 1 -5 -2 -6 -7 -3 -5 3 -18 -8 -30
-24 -27 -36 -8 -54 20 -19 32 40 39 57 28 64 -5 3 -11 3 -11 -2z"/>
<path d="M6159 8997 c-25 -12 -44 -27 -42 -33 4 -13 73 14 73 29 0 4 5 5 10 2
6 -3 10 1 10 9 0 9 -1 16 -2 15 -2 0 -24 -10 -49 -22z"/>
<path d="M623 8986 c-194 -63 -259 -212 -252 -581 4 -220 2 -243 -20 -250 -34
-10 -83 -68 -111 -130 -53 -114 -49 -202 13 -272 36 -40 175 -110 267 -134 73
-19 345 -19 420 0 82 21 234 94 268 130 59 62 65 161 16 271 -27 58 -85 126
-121 140 -20 8 -21 15 -22 152 -4 419 -54 576 -207 653 -70 34 -181 44 -251
21z m142 -125 c54 -19 129 -94 155 -153 12 -29 33 -66 46 -81 14 -16 24 -42
24 -58 0 -38 -26 -89 -46 -89 -8 0 -19 -12 -25 -27 -6 -16 -21 -42 -35 -60
-43 -57 -22 -147 41 -177 l33 -16 -30 -82 c-66 -185 -107 -282 -167 -396 -19
-38 -24 -42 -38 -30 -19 16 -89 161 -135 281 -19 48 -38 84 -42 80 -4 -4 -4 0
-1 9 4 10 0 31 -8 48 -19 38 -12 97 14 111 52 27 63 117 23 176 -26 37 -26 40
-21 173 6 188 33 251 125 292 30 13 42 25 43 41 2 19 3 18 6 -4 3 -18 14 -29
38 -38z"/>
<path d="M1795 8960 c-7 -12 40 -80 55 -80 21 0 16 17 -15 53 -20 24 -36 34
-40 27z"/>
<path d="M5963 8910 c-24 -11 -43 -24 -43 -31 0 -7 7 -8 18 -4 9 4 29 12 45
17 15 5 27 16 27 24 0 8 -1 14 -2 13 -2 0 -22 -9 -45 -19z"/>
<path d="M3630 8911 c0 -9 60 -31 88 -31 18 0 15 18 -5 24 -51 14 -83 17 -83
7z"/>
<path d="M7791 8859 c-18 -31 -20 -43 -12 -52 9 -9 10 -7 5 7 -5 13 -4 17 4
12 14 -9 47 53 35 65 -6 6 -19 -8 -32 -32z"/>
<path d="M7597 8855 c-34 -43 -25 -70 9 -29 37 45 47 64 32 64 -7 0 -26 -16
-41 -35z"/>
<path d="M3845 8860 c-7 -12 72 -33 94 -25 14 6 13 8 -4 14 -38 15 -84 20 -90
11z"/>
<path d="M2053 8828 c-18 -6 -33 -17 -33 -25 0 -8 6 -12 13 -9 6 2 29 10 50
17 38 13 50 30 20 28 -10 -1 -33 -6 -50 -11z"/>
<path d="M5758 8822 c-21 -10 -38 -23 -38 -30 0 -8 3 -12 8 -10 4 2 24 10 45
18 20 8 37 20 37 27 0 16 -5 15 -52 -5z"/>
<path d="M6990 8780 c0 -27 5 -50 10 -50 6 0 10 23 10 50 0 28 -4 50 -10 50
-5 0 -10 -22 -10 -50z"/>
<path d="M4063 8808 c2 -7 16 -13 30 -13 14 1 23 -3 21 -7 -3 -4 4 -8 15 -8
39 0 30 18 -14 29 -55 14 -58 14 -52 -1z"/>
<path d="M1937 8793 c-9 -14 22 -55 35 -47 6 4 8 2 5 -3 -4 -6 0 -16 7 -22 9
-8 16 -9 21 -2 3 6 -9 27 -28 47 -19 21 -37 33 -40 27z"/>
<path d="M1858 8762 c-44 -14 -64 -32 -37 -32 29 0 89 25 89 37 0 7 -1 13 -2
12 -2 0 -24 -8 -50 -17z"/>
<path d="M6601 8734 c-7 -26 -9 -49 -6 -52 10 -10 26 21 21 41 -2 9 0 15 5 11
5 -3 9 6 9 20 0 42 -17 30 -29 -20z"/>
<path d="M4270 8761 c0 -14 9 -18 58 -26 57 -9 55 9 -2 24 -54 13 -56 13 -56
2z"/>
<path d="M4914 8710 c3 -14 6 -37 6 -52 0 -31 55 -98 81 -98 9 0 19 -3 22 -6
12 -13 78 -11 103 3 15 7 32 13 38 13 15 0 52 81 60 130 5 31 5 32 -6 13 -6
-13 -15 -23 -19 -23 -5 0 -23 -16 -40 -35 -36 -39 -54 -43 -81 -18 -17 15 -19
15 -31 -1 -18 -24 -59 -17 -72 12 -5 12 -16 22 -23 22 -7 0 -20 15 -28 33 -12
24 -14 26 -10 7z"/>
<path d="M5000 8700 l-35 -19 33 -1 c18 0 42 5 53 11 15 7 24 7 34 -1 8 -6 29
-10 47 -8 l33 3 -32 18 c-41 22 -89 21 -133 -3z"/>
<path d="M7466 8684 c-17 -22 -25 -39 -19 -45 6 -6 21 6 41 30 27 34 32 51 13
51 -3 0 -19 -16 -35 -36z m7 -18 c-10 -13 -20 -22 -22 -20 -4 4 29 44 36 44 2
0 -4 -11 -14 -24z"/>
<path d="M1646 8694 c-28 -9 -45 -19 -40 -24 13 -13 94 10 94 26 0 8 -1 14 -2
13 -2 0 -25 -7 -52 -15z"/>
<path d="M7683 8660 c-13 -24 -17 -42 -11 -46 5 -3 10 -4 12 -3 8 12 46 81 46
85 0 2 -6 4 -12 4 -7 0 -23 -18 -35 -40z"/>
<path d="M2077 8623 c-3 -5 10 -25 28 -46 41 -47 57 -32 19 18 -26 35 -39 42
-47 28z m62 -67 c-3 -3 -11 5 -18 17 -13 21 -12 21 5 5 10 -10 16 -20 13 -22z"/>
<path d="M6986 8608 c-13 -43 -13 -85 0 -85 10 0 14 14 14 49 0 46 -6 62 -14
36z"/>
<path d="M5756 8572 c-6 -11 41 -82 54 -82 16 0 12 13 -15 53 -27 39 -31 42
-39 29z"/>
<path d="M6551 8524 c-12 -46 -8 -66 8 -48 13 14 24 94 13 94 -5 0 -15 -21
-21 -46z"/>
<path d="M7341 8519 c-13 -18 -19 -29 -12 -25 6 4 11 2 11 -3 0 -6 -7 -11 -15
-11 -8 0 -15 -4 -15 -10 0 -20 18 -9 45 26 17 22 24 39 18 45 -6 6 -18 -3 -32
-22z"/>
<path d="M7582 8470 c-30 -53 -17 -75 14 -24 24 39 30 64 17 64 -5 0 -18 -18
-31 -40z"/>
<path d="M4697 8472 c-21 -16 -48 -49 -63 -80 -22 -43 -26 -62 -22 -112 5 -67
31 -104 98 -141 19 -11 50 -29 69 -41 l33 -21 -6 30 c-4 16 -22 72 -41 123
-19 51 -35 99 -35 106 0 7 12 27 27 45 l27 32 -23 19 c-21 16 -22 22 -13 43
15 34 -2 33 -51 -3z"/>
<path d="M5380 8494 c0 -3 4 -13 10 -23 7 -14 5 -23 -10 -36 -26 -24 -25 -33
6 -66 l26 -28 -46 -127 c-26 -69 -46 -128 -44 -129 5 -5 41 14 103 52 103 65
129 156 75 262 -24 48 -120 124 -120 95z"/>
<path d="M2217 8463 c-3 -5 10 -25 28 -46 41 -47 58 -31 18 18 -29 35 -39 40
-46 28z m28 -23 c10 -11 16 -20 13 -20 -3 0 -13 9 -23 20 -10 11 -16 20 -13
20 3 0 13 -9 23 -20z"/>
<path d="M3225 8390 c-3 -5 -1 -10 5 -10 6 0 9 -3 6 -8 -7 -11 21 -72 34 -72
5 0 10 5 10 11 0 5 -5 7 -12 3 -7 -5 -9 -2 -5 9 6 17 -13 77 -25 77 -4 0 -10
-4 -13 -10z"/>
<path d="M5880 8390 c0 -9 19 -41 46 -79 2 -1 7 0 13 4 7 4 5 14 -5 30 -9 14
-20 23 -24 20 -4 -3 -7 3 -6 12 0 9 -5 18 -11 20 -7 3 -13 -1 -13 -7z"/>
<path d="M6971 8383 c10 -11 10 -14 2 -9 -10 5 -13 -4 -13 -33 0 -23 5 -41 11
-41 6 0 9 7 5 15 -3 8 -1 15 4 15 6 0 10 16 10 35 0 26 -4 35 -16 35 -14 0
-15 -2 -3 -17z"/>
<path d="M7221 8362 c-6 -10 -7 -23 -3 -27 4 -5 2 -5 -5 -1 -14 8 -37 -29 -27
-45 3 -6 19 8 36 31 21 29 27 45 20 52 -7 7 -13 4 -21 -10z"/>
<path d="M6513 8340 c3 -11 2 -18 -3 -15 -8 5 -21 -56 -14 -64 9 -10 23 17 30
57 5 30 3 42 -6 42 -7 0 -10 -8 -7 -20z"/>
<path d="M7480 8280 c-22 -43 -17 -80 6 -39 7 13 10 27 8 30 -2 4 3 9 11 13 8
3 15 12 15 21 0 28 -19 16 -40 -25z"/>
<path d="M2360 8293 c0 -11 51 -73 61 -73 16 0 10 17 -17 49 -24 29 -44 40
-44 24z"/>
<path d="M8471 8249 c-13 -11 -31 -24 -39 -28 -8 -5 -12 -13 -8 -20 5 -7 19
-2 44 16 20 15 39 29 41 30 3 2 0 7 -5 12 -5 6 -18 2 -33 -10z m29 7 c0 -2 -8
-10 -17 -17 -16 -13 -17 -12 -4 4 13 16 21 21 21 13z"/>
<path d="M5624 8212 c2 -9 10 -18 19 -20 23 -5 21 15 -2 28 -16 8 -19 7 -17
-8z"/>
<path d="M6006 8222 c-8 -14 23 -64 35 -56 13 8 11 16 -10 43 -12 15 -21 20
-25 13z"/>
<path d="M3314 8192 c-7 -5 -5 -21 8 -49 19 -44 45 -61 32 -21 -16 52 -30 76
-40 70z"/>
<path d="M7080 8175 c-13 -14 -20 -25 -15 -25 5 0 1 -6 -10 -13 -13 -10 -15
-16 -6 -21 7 -5 14 -6 15 -5 60 81 64 89 48 89 -5 0 -19 -11 -32 -25z"/>
<path d="M6950 8145 c0 -19 5 -35 11 -35 7 0 9 10 7 25 -3 14 -1 25 3 25 5 0
9 5 9 10 0 6 -7 10 -15 10 -10 0 -15 -11 -15 -35z"/>
<path d="M6045 8160 c-4 -6 -3 -16 3 -22 6 -6 12 -6 17 2 4 6 3 16 -3 22 -6 6
-12 6 -17 -2z"/>
<path d="M2506 8131 c-8 -13 53 -83 66 -75 5 3 2 14 -8 25 -9 10 -21 16 -25
13 -5 -3 -6 1 -3 9 6 17 -21 43 -30 28z"/>
<path d="M5756 8131 c-3 -5 12 -20 34 -35 45 -30 50 -31 50 -13 0 17 -77 61
-84 48z m65 -38 c13 -16 12 -17 -3 -4 -10 7 -18 15 -18 17 0 8 8 3 21 -13z"/>
<path d="M6452 8098 c-6 -23 -9 -44 -6 -47 9 -9 23 15 29 52 10 52 -10 48 -23
-5z"/>
<path d="M8277 8110 c-25 -19 -34 -31 -26 -36 7 -4 18 1 26 12 8 10 15 17 16
14 1 -2 12 2 24 11 13 9 20 19 16 22 -10 10 -15 8 -56 -23z"/>
<path d="M7389 8108 c-7 -13 -18 -33 -26 -44 -12 -18 -12 -22 0 -27 9 -3 21
10 35 39 22 44 13 74 -9 32z"/>
<path d="M1590 8059 c0 -9 6 -22 13 -28 14 -11 27 -5 27 12 0 6 -3 7 -7 4 -3
-4 -12 1 -19 11 -12 15 -13 15 -14 1z"/>
<path d="M4652 8025 c-9 -19 -9 -24 1 -22 13 2 36 27 37 40 0 18 -28 5 -38
-18z"/>
<path d="M6146 8000 c15 -22 33 -40 41 -40 15 0 13 6 -19 53 -11 15 -26 27
-34 27 -10 0 -7 -11 12 -40z"/>
<path d="M5937 8016 c-3 -7 14 -24 38 -38 31 -19 45 -23 48 -14 3 7 -14 24
-38 38 -31 19 -45 23 -48 14z"/>
<path d="M8105 7985 c-22 -18 -37 -36 -33 -40 6 -6 40 14 87 52 3 2 0 8 -5 13
-6 6 -24 -4 -49 -25z"/>
<path d="M3393 7993 c-7 -2 -9 -11 -6 -19 3 -7 10 -11 16 -7 5 3 7 1 3 -5 -3
-6 -2 -22 4 -36 12 -32 34 -35 24 -3 -15 49 -30 74 -41 70z"/>
<path d="M1726 7972 c-6 -10 80 -63 88 -55 12 12 5 20 -33 41 -43 24 -48 26
-55 14z"/>
<path d="M2645 7970 c-8 -12 44 -78 63 -79 19 -1 14 11 -22 52 -21 23 -37 34
-41 27z"/>
<path d="M1660 7925 c0 -13 6 -16 25 -13 14 3 25 1 25 -3 0 -12 37 -11 44 0 4
5 -8 12 -26 16 -18 4 -41 9 -50 11 -12 4 -18 0 -18 -11z"/>
<path d="M6820 7909 c-56 -25 -77 -44 -101 -91 -28 -54 -39 -118 -32 -178 5
-43 8 -49 14 -32 8 21 14 22 147 22 l139 0 10 43 9 42 8 -42 8 -43 47 0 c26 0
53 -6 60 -12 23 -22 9 139 -17 188 -56 109 -182 153 -292 103z"/>
<path d="M6120 7898 c0 -11 69 -58 84 -58 18 0 0 23 -34 45 -45 29 -50 30 -50
13z"/>
<path d="M4560 7860 c-28 -54 -14 -74 16 -24 13 22 24 45 24 52 0 25 -20 11
-40 -28z m23 5 c-3 -9 -8 -14 -10 -11 -3 3 -2 9 2 15 9 16 15 13 8 -4z"/>
<path d="M1870 7880 c0 -5 5 -10 10 -10 6 0 28 -12 50 -26 22 -15 44 -23 51
-18 7 4 9 3 5 -4 -3 -6 -2 -13 3 -16 5 -3 11 1 14 9 4 8 -2 16 -14 20 -10 4
-19 14 -19 24 0 13 -10 20 -37 25 -52 8 -63 8 -63 -4z"/>
<path d="M7945 7874 c-11 -9 -28 -22 -39 -29 -10 -7 -15 -18 -11 -24 4 -7 19
-1 43 16 20 15 39 29 41 30 3 2 0 7 -5 12 -5 6 -17 4 -29 -5z"/>
<path d="M6255 7860 c-3 -6 4 -24 16 -41 15 -22 24 -27 29 -18 5 7 0 24 -13
41 -23 32 -24 32 -32 18z"/>
<path d="M2080 7842 c0 -15 8 -19 58 -27 30 -5 42 -3 42 5 0 7 -7 10 -16 6 -8
-3 -12 -2 -9 4 3 6 -5 10 -19 10 -13 0 -31 3 -40 6 -9 3 -16 1 -16 -4z"/>
<path d="M2787 7804 c-3 -3 8 -24 25 -45 22 -27 35 -36 42 -29 7 7 -1 21 -25
46 -19 19 -38 32 -42 28z m34 -31 c13 -16 12 -17 -3 -4 -17 13 -22 21 -14 21
2 0 10 -8 17 -17z"/>
<path d="M2300 7789 c0 -8 11 -12 63 -23 20 -5 27 -3 27 9 0 9 -10 16 -22 16
-13 1 -33 3 -45 4 -13 1 -23 -1 -23 -6z"/>
<path d="M3476 7792 c-7 -12 13 -72 25 -72 4 0 6 -7 3 -15 -4 -11 -2 -13 9 -9
14 5 13 11 -4 52 -24 54 -25 56 -33 44z"/>
<path d="M2106 7751 c-4 -5 14 -20 38 -34 30 -16 46 -21 49 -14 5 15 -51 50
-65 41 -7 -4 -8 -2 -4 4 4 7 3 12 -3 12 -5 0 -12 -4 -15 -9z"/>
<path d="M2510 7752 c0 -15 11 -20 58 -28 30 -5 42 -3 42 6 0 7 -8 10 -20 7
-11 -3 -18 -1 -14 4 3 5 -4 9 -15 9 -10 0 -26 3 -35 6 -9 3 -16 1 -16 -4z"/>
<path d="M7747 7731 c-22 -17 -34 -32 -28 -36 15 -9 33 4 25 17 -4 7 -2 8 4 4
14 -8 64 23 56 35 -8 14 -16 11 -57 -20z"/>
<path d="M3620 7705 c-178 -38 -301 -103 -427 -226 -36 -36 -64 -56 -68 -49
-3 5 -11 7 -17 4 -7 -5 -9 -1 -5 9 7 18 -17 42 -33 32 -8 -5 -1 -18 19 -39
l31 -32 -45 -69 c-50 -76 -96 -187 -116 -280 -21 -93 -15 -284 10 -379 26 -98
26 -96 -4 -96 -16 0 -25 -6 -25 -15 0 -8 5 -15 11 -15 5 0 8 4 5 8 -3 5 7 7
22 4 22 -3 36 -19 72 -84 24 -44 74 -112 110 -151 75 -81 177 -160 197 -153 8
3 11 1 8 -4 -9 -14 110 -67 202 -90 417 -107 847 117 993 517 76 209 62 478
-34 658 -11 22 -24 48 -29 59 -6 16 -5 17 8 6 12 -10 15 -10 15 4 0 9 -8 16
-19 16 -12 0 -39 25 -68 63 -48 61 -73 104 -53 92 6 -3 10 -2 10 4 0 17 -20
23 -26 7 -4 -11 -22 -2 -75 39 -82 64 -186 116 -289 145 -97 28 -288 35 -380
15z m251 -175 c81 -22 114 -60 194 -220 85 -173 96 -220 70 -320 l-16 -64 30
-59 c30 -58 40 -107 22 -107 -4 0 -37 9 -71 20 -74 23 -90 25 -90 7 0 -8 -14
-34 -30 -59 -23 -34 -48 -55 -100 -82 l-70 -37 -2 -191 -3 -191 -27 -1 -28 -2
-1 106 c0 58 0 137 1 177 1 40 -4 81 -10 92 -6 12 -33 30 -60 42 -54 23 -116
84 -126 124 -3 14 -11 25 -16 25 -10 0 -8 -39 8 -122 5 -31 3 -40 -19 -62 -41
-41 -98 -30 -96 19 0 11 3 14 6 8 2 -7 13 -13 24 -13 25 0 25 29 -1 80 -11 22
-20 46 -20 55 0 21 -29 19 -68 -5 l-32 -20 -11 27 c-16 41 -4 77 46 148 49 68
60 119 36 163 -14 26 -14 92 -1 128 6 15 32 51 59 80 33 36 50 64 54 91 22
133 180 207 348 163z m-144 -1016 c6 -16 -15 -37 -29 -28 -4 3 -8 14 -8 25 0
23 28 26 37 3z m0 -110 c6 -16 -15 -37 -29 -28 -4 3 -8 14 -8 25 0 23 28 26
37 3z m1 -117 c2 -12 -3 -17 -17 -17 -15 0 -21 6 -21 21 0 25 33 22 38 -4z"/>
<path d="M2720 7700 c0 -5 3 -10 8 -10 4 -1 26 -5 50 -9 31 -6 42 -5 42 4 0 7
-17 15 -37 19 -52 8 -63 8 -63 -4z"/>
<path d="M4470 7695 c-6 -8 -8 -20 -4 -26 4 -7 3 -9 -3 -6 -6 4 -15 -5 -21
-18 -20 -42 11 -30 36 14 22 39 16 65 -8 36z"/>
<path d="M2939 7661 c0 -3 -2 -14 -4 -24 -4 -20 49 -86 60 -75 4 4 -2 19 -12
35 -32 45 -33 49 -12 49 10 0 19 -4 19 -8 0 -12 38 -10 45 2 3 6 3 10 -2 10
-4 1 -27 5 -50 9 -24 5 -43 6 -44 2z"/>
<path d="M2294 7638 c-4 -7 -3 -8 4 -4 7 4 12 3 12 -3 0 -12 59 -45 67 -37 10
9 -9 27 -24 22 -8 -3 -11 -2 -8 4 3 5 -3 14 -14 19 -25 14 -28 14 -37 -1z"/>
<path d="M3150 7612 c0 -13 83 -33 93 -23 12 12 0 17 -50 26 -26 4 -43 3 -43
-3z"/>
<path d="M6696 7515 c3 -33 7 -66 10 -72 3 -12 74 -19 74 -8 0 13 -35 75 -42
75 -5 0 -17 15 -28 33 l-20 32 6 -60z"/>
<path d="M7120 7530 c-6 -11 -17 -20 -24 -20 -12 0 -39 -49 -37 -67 1 -9 46
-12 59 -4 8 5 23 111 16 111 -2 0 -8 -9 -14 -20z"/>
<path d="M2480 7533 c1 -9 67 -53 81 -53 5 0 9 4 9 10 0 12 -35 31 -44 23 -3
-3 -6 -1 -6 6 0 7 -4 9 -10 6 -5 -3 -10 -1 -10 4 0 6 -4 11 -10 11 -5 0 -10
-3 -10 -7z"/>
<path d="M2667 7423 c-8 -7 61 -52 81 -53 23 0 12 18 -24 39 -38 22 -47 25
-57 14z"/>
<path d="M409 7369 c-14 -29 -17 -45 -10 -52 7 -7 16 4 31 37 23 55 23 56 10
56 -5 0 -19 -19 -31 -41z m2 -32 c-10 -9 -11 -8 -5 6 3 10 9 15 12 12 3 -3 0
-11 -7 -18z"/>
<path d="M2857 7318 c-5 -15 69 -62 83 -53 15 9 0 27 -17 21 -8 -3 -12 -2 -9
3 7 11 -22 23 -36 14 -6 -3 -8 -1 -4 5 3 6 2 13 -3 16 -5 4 -11 0 -14 -6z"/>
<path d="M4640 7296 c0 -9 8 -16 19 -16 10 0 33 -3 50 -6 19 -4 31 -2 31 4 0
6 -15 13 -32 17 -18 4 -41 9 -50 11 -12 4 -18 0 -18 -10z"/>
<path d="M6725 7291 c-27 -10 -82 -28 -122 -40 -81 -25 -99 -44 -127 -140 -31
-105 -18 -188 36 -237 43 -41 191 -104 258 -111 l62 -6 -6 74 c-9 96 -46 451
-49 465 -1 9 -17 7 -52 -5z"/>
<path d="M7050 7293 c0 -10 -11 -126 -25 -258 -14 -132 -25 -248 -25 -257 0
-37 99 -19 225 42 85 40 117 68 134 113 24 62 4 191 -40 263 -21 34 -32 40
-159 79 -47 14 -91 29 -97 31 -8 4 -13 -2 -13 -13z"/>
<path d="M4850 7251 c0 -13 48 -23 72 -15 14 4 18 2 14 -5 -4 -6 -2 -11 3 -11
6 0 11 7 11 16 0 12 -7 15 -25 12 -14 -3 -25 -1 -25 3 0 5 -11 9 -25 9 -14 0
-25 -4 -25 -9z"/>
<path d="M5065 7210 c-3 -5 11 -14 32 -19 47 -13 63 -14 63 -2 0 5 -10 7 -22
3 -14 -3 -19 -2 -14 6 4 7 1 12 -6 13 -7 0 -21 2 -30 4 -10 2 -20 -1 -23 -5z"/>
<path d="M317 7168 c-28 -70 -2 -66 28 5 12 30 13 37 2 37 -8 0 -21 -19 -30
-42z"/>
<path d="M8080 7184 c0 -11 5 -14 16 -10 9 3 27 6 40 6 13 0 24 5 24 10 0 6
-18 10 -40 10 -30 0 -40 -4 -40 -16z"/>
<path d="M7926 7182 c-3 -5 -19 -7 -36 -4 -19 3 -30 0 -30 -7 0 -16 92 -10 98
7 4 13 -24 17 -32 4z"/>
<path d="M5280 7162 c0 -11 33 -22 70 -22 35 0 13 17 -32 25 -23 5 -38 3 -38
-3z"/>
<path d="M7661 7153 c0 -10 3 -13 5 -7 3 6 20 9 39 7 20 -2 35 1 35 7 0 5 -18
10 -40 10 -32 0 -40 -4 -39 -17z"/>
<path d="M5494 7119 c-2 -4 12 -13 33 -18 49 -14 63 -14 63 0 0 6 -7 9 -15 5
-8 -3 -15 -2 -15 3 0 11 -59 20 -66 10z"/>
<path d="M6071 7082 c-1 -7 -6 -10 -12 -7 -15 10 -79 -4 -79 -17 0 -7 16 -8
48 -3 54 8 56 9 49 27 -4 11 -6 11 -6 0z"/>
<path d="M5700 7070 c0 -7 7 -10 15 -6 8 3 15 1 15 -4 0 -6 14 -10 32 -10 30
0 31 -1 12 -15 -18 -13 -17 -14 18 -15 41 0 68 8 68 21 0 5 -10 9 -22 9 -19 0
-20 -2 -8 -10 9 -6 10 -10 3 -10 -6 0 -18 9 -26 20 -17 24 -107 41 -107 20z"/>
<path d="M8550 7028 c-154 -117 -157 -354 -5 -443 25 -15 48 -25 51 -23 2 3 3
117 2 253 l-3 248 -45 -35z"/>
<path d="M6199 7030 c-1 -14 -2 -30 -2 -36 0 -8 -11 -9 -33 -4 -25 6 -34 5
-34 -5 0 -7 6 -15 12 -17 9 -3 8 -11 -4 -30 -15 -23 -15 -38 2 -38 3 0 14 14
24 31 15 25 23 29 42 25 17 -5 24 -2 24 9 0 8 -5 15 -11 15 -6 0 -9 7 -5 15 3
8 1 25 -4 37 l-9 23 -2 -25z m-39 -94 c0 -2 -8 -10 -17 -17 -16 -13 -17 -12
-4 4 13 16 21 21 21 13z"/>
<path d="M5922 7029 c6 -17 78 -33 91 -20 5 5 -4 12 -25 16 -18 3 -41 9 -52
12 -12 3 -17 1 -14 -8z"/>
<path d="M230 6981 c-22 -44 -26 -65 -9 -59 15 5 49 87 39 93 -5 3 -18 -12
-30 -34z"/>
<path d="M5630 7013 c0 -5 -18 -7 -40 -7 -28 2 -40 -2 -40 -12 0 -8 5 -14 10
-14 6 0 10 4 10 9 0 6 10 8 22 6 13 -3 31 -2 40 1 19 6 25 24 8 24 -5 0 -10
-3 -10 -7z"/>
<path d="M5358 6973 c-32 -8 -20 -26 13 -19 17 3 38 6 46 6 8 0 11 5 8 10 -6
10 -36 11 -67 3z"/>
<path d="M5148 6943 c-16 -2 -28 -10 -28 -18 0 -10 8 -11 38 -3 20 5 43 10 50
10 6 1 12 5 12 10 0 8 -22 8 -72 1z"/>
<path d="M4984 6912 c3 -5 -8 -6 -24 -4 -35 5 -67 -5 -54 -17 15 -13 94 -1 94
15 0 8 -5 14 -11 14 -5 0 -8 -4 -5 -8z"/>
<path d="M4775 6884 c-5 -1 -27 -5 -47 -9 -57 -9 -48 -28 10 -19 26 3 49 8 51
10 7 6 -4 21 -14 18z"/>
<path d="M6152 6832 c-14 -61 3 -79 18 -21 7 24 14 47 16 50 2 4 -2 9 -10 12
-9 4 -16 -9 -24 -41z"/>
<path d="M154 6804 c3 -8 2 -13 -3 -10 -13 9 -36 -53 -24 -65 7 -7 12 -5 17 6
4 11 2 14 -7 10 -6 -4 -5 -1 4 7 21 17 40 54 32 62 -12 12 -25 6 -19 -10z"/>
<path d="M6021 6783 c-34 -41 -38 -53 -18 -53 16 1 70 77 58 84 -5 4 -23 -11
-40 -31z"/>
<path d="M6355 6733 c-11 -8 -29 -21 -40 -29 -12 -9 -16 -17 -10 -23 7 -7 24
2 49 23 39 32 39 58 1 29z"/>
<path d="M7410 6715 c0 -10 15 -17 43 -22 50 -8 50 -8 55 6 2 6 -8 11 -22 11
-13 0 -36 4 -50 10 -21 7 -26 6 -26 -5z"/>
<path d="M7622 6668 c5 -13 86 -33 96 -24 10 11 -8 19 -42 20 -19 1 -32 4 -29
9 2 4 -3 7 -12 7 -9 0 -15 -6 -13 -12z"/>
<path d="M6115 6639 c5 -15 4 -19 -4 -15 -6 4 -11 1 -11 -6 0 -7 -3 -23 -6
-35 -5 -18 -2 -23 14 -23 11 0 22 -4 24 -10 2 -5 21 6 43 24 49 42 40 59 -13
22 -21 -14 -45 -26 -53 -26 -8 0 -10 3 -4 8 6 4 16 24 22 45 9 31 9 37 -4 37
-10 0 -12 -6 -8 -21z"/>
<path d="M7237 6644 c-3 -4 1 -17 10 -31 20 -30 41 -15 21 16 -13 22 -20 25
-31 15z"/>
<path d="M5885 6604 c-17 -23 -24 -39 -18 -45 6 -6 20 4 36 29 15 21 27 41 27
45 0 17 -20 4 -45 -29z m25 2 c0 -2 -8 -10 -17 -17 -16 -13 -17 -12 -4 4 13
16 21 21 21 13z"/>
<path d="M7836 6621 c-3 -5 17 -13 44 -18 38 -8 50 -7 50 2 0 19 -84 33 -94
16z"/>
<path d="M7130 6603 c0 -11 44 -73 52 -73 18 0 14 19 -8 48 -24 30 -44 41 -44
25z"/>
<path d="M8050 6576 c0 -13 87 -32 98 -21 10 10 -9 19 -43 19 -19 1 -35 4 -35
9 0 4 -4 7 -10 7 -5 0 -10 -6 -10 -14z"/>
<path d="M6462 6541 c-24 -43 -26 -51 -13 -51 12 0 61 77 54 84 -12 12 -20 6
-41 -33z"/>
<path d="M2766 6541 c-16 -3 -31 -12 -34 -20 -3 -10 3 -12 29 -6 58 11 69 16
64 26 -7 10 -15 10 -59 0z"/>
<path d="M8260 6531 c0 -5 15 -12 33 -16 17 -4 40 -9 50 -11 10 -3 17 0 17 9
0 9 -14 17 -37 21 -52 8 -63 8 -63 -3z"/>
<path d="M2594 6502 c3 -5 -8 -6 -25 -4 -17 2 -29 0 -29 -7 0 -6 -7 -8 -15 -5
-8 4 -15 1 -15 -6 0 -9 11 -11 38 -6 20 3 43 6 50 6 6 0 12 7 12 15 0 8 -5 15
-11 15 -5 0 -8 -4 -5 -8z"/>
<path d="M6717 6503 c-11 -19 -18 -93 -9 -93 12 0 25 47 17 60 -4 6 -1 10 4
10 6 0 11 7 11 15 0 16 -16 21 -23 8z"/>
<path d="M7330 6495 c0 -3 12 -24 27 -46 16 -25 30 -36 36 -30 12 12 -1 33
-15 25 -7 -4 -8 -2 -4 4 8 14 -14 52 -31 52 -7 0 -13 -2 -13 -5z"/>
<path d="M5977 6463 c-24 -17 -34 -30 -28 -36 13 -13 44 11 34 26 -3 6 -1 7 5
3 14 -8 55 17 45 27 -10 11 -16 9 -56 -20z"/>
<path d="M0 6334 l0 -147 50 5 c58 6 63 -4 18 -32 -32 -19 -32 -20 -8 -20 33
0 84 32 106 66 16 24 19 25 25 8 4 -11 8 -55 9 -99 l0 -80 26 60 c60 140 67
193 33 262 -15 30 -29 45 -47 49 -15 4 -43 17 -62 30 -31 20 -102 43 -137 44
-10 0 -13 -36 -13 -146z"/>
<path d="M2348 6457 c-27 -5 -48 -14 -48 -19 0 -9 89 -2 99 7 13 14 -12 19
-51 12z"/>
<path d="M5756 6436 c-26 -35 -33 -56 -18 -56 5 0 17 12 28 28 32 42 35 50 25
56 -5 3 -21 -10 -35 -28z"/>
<path d="M6051 6404 c-12 -46 -8 -66 8 -48 4 5 13 28 19 52 8 33 7 42 -3 42
-7 0 -18 -21 -24 -46z"/>
<path d="M7256 6432 c-9 -15 45 -85 56 -74 7 7 1 22 -17 46 -30 39 -31 40 -39
28z"/>
<path d="M2118 6413 c-16 -2 -28 -10 -28 -17 0 -8 10 -11 30 -8 17 2 30 8 30
12 0 5 10 6 22 2 14 -3 19 -2 14 6 -7 12 -17 13 -68 5z"/>
<path d="M6348 6354 c-16 -26 -23 -46 -17 -50 10 -6 25 9 53 57 12 21 13 28 3
32 -6 2 -24 -15 -39 -39z m23 3 c-10 -9 -11 -8 -5 6 3 10 9 15 12 12 3 -3 0
-11 -7 -18z"/>
<path d="M1905 6370 c-16 -4 -23 -8 -15 -10 11 -1 9 -4 -5 -11 -15 -7 -11 -7
15 -3 53 8 70 14 70 25 0 10 -21 10 -65 -1z"/>
<path d="M5807 6343 c-20 -14 -37 -32 -37 -40 0 -20 11 -16 54 20 48 41 34 56
-17 20z"/>
<path d="M1698 6327 c-42 -12 -51 -26 -15 -22 12 1 32 3 43 4 12 0 24 8 28 16
6 17 -2 17 -56 2z"/>
<path d="M7462 6298 c8 -13 21 -33 29 -45 14 -24 29 -30 29 -13 0 19 -45 80
-59 80 -11 0 -11 -4 1 -22z"/>
<path d="M4456 6302 c-8 -13 60 -75 73 -67 15 9 3 27 -12 19 -7 -4 -9 -3 -4 1
4 5 -3 19 -15 32 -23 24 -34 28 -42 15z"/>
<path d="M5625 6264 c-15 -19 -24 -41 -22 -48 3 -8 0 -19 -6 -25 -24 -24 5
-22 43 3 44 29 46 53 3 31 -34 -18 -44 -10 -15 11 27 19 45 51 33 58 -5 3 -21
-10 -36 -30z m28 11 c-3 -9 -8 -14 -10 -11 -3 3 -2 9 2 15 9 16 15 13 8 -4z"/>
<path d="M6666 6265 c-4 -20 -4 -39 -1 -44 3 -5 -1 -12 -7 -14 -8 -3 -5 -6 6
-6 14 -1 17 4 14 24 -3 14 -2 25 2 25 4 0 10 11 12 25 3 16 1 25 -7 25 -7 0
-16 -16 -19 -35z"/>
<path d="M1463 6283 c-40 -8 -26 -26 15 -19 20 3 43 6 50 6 6 0 12 5 12 10 0
10 -34 11 -77 3z"/>
<path d="M7380 6249 c0 -9 19 -41 46 -78 2 -1 8 0 13 4 7 4 2 20 -16 45 -28
40 -43 50 -43 29z"/>
<path d="M1253 6243 c-23 -4 -33 -33 -12 -33 5 0 7 5 3 12 -5 7 -3 8 5 4 15
-9 81 1 81 13 0 10 -31 8 -49 -4 -10 -5 -12 -4 -7 3 4 7 6 11 4 11 -2 -1 -13
-4 -25 -6z"/>
<path d="M6002 6193 c-11 -51 -10 -59 8 -48 7 4 10 16 7 26 -3 11 -1 19 4 19
5 0 9 11 9 25 0 42 -18 28 -28 -22z"/>
<path d="M1056 6201 c-16 -3 -31 -12 -34 -20 -3 -9 2 -11 14 -8 11 3 34 8 52
12 17 4 32 11 32 16 0 10 -19 10 -64 0z"/>
<path d="M6248 6188 c-34 -52 -40 -68 -24 -68 19 0 60 70 48 82 -5 5 -15 0
-24 -14z"/>
<path d="M837 6157 c-22 -7 -35 -15 -31 -19 10 -11 36 -10 30 1 -3 5 8 8 25 7
18 0 34 5 36 12 6 15 -9 14 -60 -1z"/>
<path d="M4207 6154 c-3 -3 8 -24 25 -45 22 -27 35 -36 42 -29 7 7 -1 21 -25
46 -19 19 -38 32 -42 28z m48 -44 c10 -11 16 -20 13 -20 -3 0 -13 9 -23 20
-10 11 -16 20 -13 20 3 0 13 -9 23 -20z"/>
<path d="M4610 6150 c1 -26 57 -86 69 -75 8 8 -1 23 -29 50 -23 23 -40 33 -40
25z m61 -57 c13 -16 12 -17 -3 -4 -10 7 -18 15 -18 17 0 8 8 3 21 -13z"/>
<path d="M7580 6129 c0 -9 19 -41 46 -78 2 -1 7 0 13 3 6 4 0 22 -17 46 -27
39 -42 50 -42 29z"/>
<path d="M3252 6097 c-18 -18 -29 -36 -26 -40 8 -8 84 55 78 65 -9 14 -19 9
-52 -25z m38 19 c0 -2 -8 -10 -17 -17 -16 -13 -17 -12 -4 4 13 16 21 21 21 13z"/>
<path d="M5504 6108 c-5 -7 -3 -8 6 -3 9 5 11 4 6 -4 -5 -8 -12 -9 -20 -2 -14
12 -60 -15 -51 -30 3 -5 0 -6 -8 -3 -17 6 -32 -12 -17 -21 5 -3 21 5 35 19 14
14 25 19 25 13 0 -7 -5 -18 -11 -24 -7 -7 -7 -13 -1 -17 9 -5 72 63 72 78 0
11 -29 6 -36 -6z"/>
<path d="M6626 6073 c-14 -52 -17 -83 -7 -83 6 0 13 12 17 28 3 15 8 34 10 44
3 9 0 19 -5 22 -5 4 -12 -2 -15 -11z"/>
<path d="M7505 6080 c-4 -6 -3 -16 3 -22 6 -6 12 -6 17 2 4 6 3 16 -3 22 -6 6
-12 6 -17 -2z"/>
<path d="M7525 6050 c-9 -14 26 -63 38 -51 11 11 0 34 -14 26 -5 -3 -6 0 -3 8
6 17 -12 32 -21 17z"/>
<path d="M5956 6004 c-4 -14 -4 -35 0 -46 4 -14 2 -18 -5 -14 -6 4 -11 2 -11
-4 0 -7 6 -10 13 -7 6 2 12 14 11 26 0 11 3 21 8 21 4 0 8 11 8 25 0 33 -16
32 -24 -1z"/>
<path d="M6123 5980 c-13 -22 -19 -41 -13 -45 11 -7 35 34 32 53 -2 7 2 11 9
10 6 -2 14 3 16 10 11 30 -24 8 -44 -28z"/>
<path d="M4756 5992 c-3 -5 12 -26 33 -46 49 -48 61 -34 15 17 -37 40 -40 42
-48 29z"/>
<path d="M4350 5981 c0 -13 50 -71 61 -71 16 0 10 17 -17 49 -25 31 -44 40
-44 22z"/>
<path d="M5278 5962 c-48 -31 -54 -62 -7 -35 38 22 63 49 52 56 -4 2 -25 -7
-45 -21z"/>
<path d="M3091 5945 c-22 -21 -30 -35 -22 -39 15 -10 33 3 25 17 -4 7 -3 9 1
4 10 -9 56 33 49 44 -8 14 -16 10 -53 -26z m49 21 c0 -2 -8 -10 -17 -17 -16
-13 -17 -12 -4 4 13 16 21 21 21 13z"/>
<path d="M5357 5910 c-15 -21 -23 -41 -18 -44 11 -7 73 68 64 78 -11 11 -17 6
-46 -34z m33 16 c0 -2 -8 -10 -17 -17 -16 -13 -17 -12 -4 4 13 16 21 21 21 13z"/>
<path d="M8121 5933 c-19 -13 -28 -14 -42 -5 -29 18 -67 14 -79 -8 -7 -13 -21
-20 -40 -20 -30 0 -60 -22 -60 -45 0 -8 -12 -22 -26 -32 -23 -14 -25 -22 -21
-54 3 -26 0 -42 -10 -50 -27 -23 -34 -46 -21 -74 9 -20 8 -31 -2 -50 -10 -19
-11 -30 -2 -50 17 -37 15 -75 -3 -75 -25 0 -82 -64 -89 -101 -7 -30 -9 -63 -6
-101 0 -7 -3 -28 -6 -46 -5 -23 -2 -38 10 -51 20 -22 16 -57 -10 -75 -11 -8
-32 -38 -47 -68 -49 -97 -53 -187 -11 -259 15 -27 43 -45 124 -86 124 -61 183
-73 351 -73 153 0 230 16 339 69 131 64 130 63 130 197 0 119 -7 148 -48 199
-38 47 -46 48 -103 10 -30 -19 -57 -35 -62 -35 -4 0 -6 -3 -4 -7 3 -5 -5 -9
-16 -10 -12 -1 -53 -11 -92 -22 -159 -46 -377 -5 -500 93 l-29 23 30 16 c17 9
65 22 108 30 43 8 84 21 92 29 7 7 18 37 24 66 9 47 7 55 -14 89 -14 21 -36
49 -50 63 -25 25 -46 69 -46 96 0 8 9 22 19 31 14 11 18 24 14 43 -6 33 18 60
53 60 14 0 38 10 55 22 26 20 33 21 65 9 28 -10 41 -10 65 0 27 10 34 9 59
-10 16 -11 40 -21 54 -21 34 0 56 -25 56 -65 0 -21 6 -35 16 -39 13 -5 15 -15
10 -52 -3 -29 -2 -43 4 -39 6 3 10 19 10 36 0 16 5 38 12 49 10 15 10 27 -1
56 -9 26 -10 39 -2 47 16 16 13 63 -5 78 -11 9 -14 22 -9 47 6 30 2 39 -27 68
-18 18 -41 42 -51 54 -12 14 -24 19 -38 15 -14 -5 -27 1 -44 19 -28 30 -51 33
-84 9z m361 -850 c-6 -2 -10 -8 -8 -12 3 -4 -4 -7 -15 -7 -19 0 -19 1 -3 13
10 7 23 13 28 12 6 0 5 -3 -2 -6z m-618 -62 c-2 -3 -9 0 -15 6 -6 6 -19 9 -28
6 -13 -4 -13 -3 -2 5 14 10 56 -6 45 -17z"/>
<path d="M166 5873 c-3 -3 -6 -30 -6 -58 0 -39 5 -56 20 -70 17 -16 20 -31 20
-108 l0 -89 -70 -88 c-38 -48 -77 -93 -87 -101 -15 -11 -16 -11 -5 1 6 8 12
37 12 65 0 28 4 55 10 61 6 6 -3 24 -25 49 l-35 40 1 -100 c1 -55 6 -108 11
-119 7 -13 7 -16 -1 -12 -8 5 -11 -34 -11 -135 l0 -142 113 6 c63 4 144 15
185 27 66 18 95 34 214 114 120 81 110 303 -19 401 -25 19 -60 40 -79 47 -19
7 -34 15 -34 19 0 12 -207 199 -214 192z"/>
<path d="M6583 5850 c3 -11 2 -18 -3 -15 -4 3 -10 -8 -12 -25 -7 -44 18 -46
26 -2 8 52 8 62 -5 62 -6 0 -9 -9 -6 -20z"/>
<path d="M5097 5833 c-33 -23 -47 -43 -32 -43 12 0 62 30 74 43 22 27 -5 27
-42 0z"/>
<path d="M4906 5832 c-8 -14 61 -75 74 -67 8 5 1 18 -21 41 -34 35 -44 40 -53
26z m54 -41 c13 -11 12 -12 -6 -3 -12 7 -24 19 -28 29 -5 16 -4 16 7 3 7 -8
19 -21 27 -29z"/>
<path d="M6035 5830 c3 -6 1 -10 -5 -10 -7 0 -9 -7 -6 -16 3 -8 2 -12 -4 -9
-12 8 -34 -35 -23 -46 5 -5 20 11 35 35 22 37 24 45 12 50 -9 3 -12 1 -9 -4z"/>
<path d="M2952 5807 c-12 -13 -19 -27 -15 -31 5 -4 2 -6 -6 -4 -7 2 -16 -3
-18 -9 -8 -23 15 -14 46 18 17 17 29 35 25 40 -7 12 -8 12 -32 -14z m28 9 c0
-2 -8 -10 -17 -17 -16 -13 -17 -12 -4 4 13 16 21 21 21 13z"/>
<path d="M4486 5821 c-8 -12 19 -33 29 -23 5 4 5 2 2 -4 -7 -13 36 -58 46 -48
7 8 -50 84 -63 84 -5 0 -11 -4 -14 -9z"/>
<path d="M5910 5801 c0 -11 5 -23 10 -26 6 -3 10 3 10 14 0 11 -4 23 -10 26
-5 3 -10 -3 -10 -14z"/>
<path d="M4905 5694 l-30 -26 33 22 c17 12 32 23 32 26 0 7 -4 5 -35 -22z"/>
<path d="M4635 5661 c-6 -11 43 -81 57 -81 19 0 13 19 -17 53 -19 22 -36 34
-40 28z"/>
<path d="M6535 5648 c-11 -37 -15 -88 -6 -88 10 0 15 13 26 68 4 21 3 32 -5
32 -6 0 -12 -6 -15 -12z"/>
<path d="M5445 5629 c-54 -15 -109 -72 -151 -156 -35 -71 -39 -87 -42 -168 -2
-49 0 -101 5 -113 9 -22 11 -20 44 35 25 43 48 66 87 89 107 65 210 50 299
-41 29 -30 55 -65 59 -79 10 -42 22 -30 30 30 11 94 -2 171 -44 253 -67 133
-167 185 -287 150z"/>
<path d="M976 5615 c-2 -7 15 -15 45 -21 41 -9 49 -8 49 4 0 9 -7 13 -20 9
-11 -3 -18 -2 -15 3 3 4 -8 10 -25 12 -16 3 -31 -1 -34 -7z"/>
<path d="M4742 5579 c-23 -17 -39 -35 -36 -41 5 -8 84 57 84 69 0 6 -7 2 -48
-28z"/>
<path d="M1190 5571 c0 -14 9 -18 58 -26 50 -8 59 10 10 20 -18 4 -41 9 -50
11 -10 3 -18 1 -18 -5z"/>
<path d="M1400 5521 c0 -5 7 -11 15 -15 8 -3 15 0 15 7 0 8 3 8 9 -2 5 -8 16
-11 25 -8 9 4 16 2 16 -3 0 -6 5 -10 10 -10 6 0 10 6 10 14 0 8 -15 16 -37 20
-51 8 -63 8 -63 -3z"/>
<path d="M2530 5515 c-103 -29 -175 -87 -221 -178 -23 -44 -27 -100 -18 -241
3 -50 0 -71 -9 -74 -17 -5 -15 -22 3 -22 9 0 15 -9 15 -25 0 -14 9 -48 20 -77
11 -29 20 -61 20 -72 0 -15 3 -16 15 -6 8 7 15 19 15 27 0 30 18 1 30 -47 10
-41 9 -54 -3 -80 -15 -29 -15 -30 6 -18 12 6 27 18 34 27 17 22 16 104 -2 198
-20 104 -20 110 4 89 11 -10 38 -18 64 -19 49 -2 78 16 103 65 20 39 44 34 77
-13 41 -60 93 -71 155 -33 21 14 22 13 22 -10 0 -14 -7 -55 -16 -93 -29 -122
-6 -198 66 -218 l25 -7 -22 21 c-27 26 -38 61 -28 92 l7 22 14 -24 c9 -17 13
-19 14 -8 0 9 10 48 21 85 17 54 23 65 29 49 11 -30 24 45 17 99 l-6 42 32 -3
c29 -4 30 -3 12 8 -11 7 -22 14 -24 16 -3 2 -10 54 -17 117 -18 163 -62 239
-171 293 -70 34 -196 42 -283 18z m251 -242 c27 -28 51 -70 63 -109 6 -20 2
-21 -81 -29 -49 -4 -104 -8 -123 -8 -47 0 -220 15 -220 19 0 2 5 14 11 28 11
22 13 23 27 9 14 -13 17 -11 30 21 8 20 18 36 24 36 5 0 7 -3 5 -7 -7 -12 11
-53 23 -53 5 0 10 9 10 19 0 11 11 33 24 48 22 24 25 25 24 8 -2 -30 11 -75
22 -75 6 0 10 7 10 16 0 8 20 34 45 56 25 23 45 47 45 55 0 18 27 4 61 -34z
m-208 -159 c24 -7 22 -55 -3 -82 -26 -27 -88 -30 -119 -4 -26 20 -32 79 -10
93 13 9 90 4 132 -7z m261 10 c23 -9 21 -69 -4 -94 -20 -20 -71 -27 -105 -14
-21 8 -46 59 -39 78 6 16 19 21 74 29 43 7 58 7 74 1z"/>
<path d="M1610 5476 c0 -15 8 -17 68 -20 9 -1 20 -5 24 -11 5 -6 8 -3 8 6 0
11 -12 19 -36 23 -19 4 -42 10 -50 13 -8 3 -14 -1 -14 -11z"/>
<path d="M4567 5455 c-34 -24 -48 -45 -29 -45 16 0 82 52 77 61 -8 12 -5 13
-48 -16z m3 -19 c0 -2 -7 -7 -16 -10 -8 -3 -12 -2 -9 4 6 10 25 14 25 6z"/>
<path d="M7233 5453 c3 -5 -9 -8 -26 -8 -32 0 -49 -16 -26 -24 6 -2 9 0 6 5
-3 5 11 9 31 9 19 0 37 6 39 13 3 6 -3 12 -12 12 -9 0 -14 -3 -12 -7z"/>
<path d="M6483 5400 c-8 -39 -7 -50 3 -50 7 0 15 18 19 40 9 51 8 54 -3 58 -5
1 -14 -20 -19 -48z"/>
<path d="M1832 5428 c6 -16 79 -31 90 -20 6 6 -10 14 -36 21 -56 14 -59 14
-54 -1z"/>
<path d="M8307 5423 c-15 -53 -16 -93 -4 -128 l13 -38 13 44 c8 31 9 54 2 78
-6 19 -8 37 -6 42 3 4 1 10 -4 13 -5 4 -12 -2 -14 -11z"/>
<path d="M6978 5413 c-16 -2 -28 -10 -28 -17 0 -10 10 -11 43 -5 23 4 45 8 50
9 4 0 7 5 7 10 0 10 -20 11 -72 3z"/>
<path d="M6780 5369 c11 -7 6 -8 -20 -4 -27 6 -32 4 -23 -5 7 -8 25 -10 52 -5
49 8 55 25 9 25 -26 0 -30 -3 -18 -11z"/>
<path d="M4381 5321 c-19 -15 -30 -31 -24 -34 12 -8 55 21 48 33 -3 4 3 7 12
6 9 0 18 5 20 12 8 21 -20 13 -56 -17z"/>
<path d="M6604 5342 c3 -5 -8 -6 -25 -4 -17 2 -29 0 -29 -7 0 -6 -7 -8 -15 -5
-8 4 -15 1 -15 -6 0 -9 11 -11 38 -6 20 3 43 6 50 6 6 0 12 7 12 15 0 8 -5 15
-11 15 -5 0 -8 -4 -5 -8z"/>
<path d="M3476 5236 c4 -11 19 -16 50 -16 24 0 44 5 44 10 0 6 -15 10 -34 10
-19 0 -42 3 -50 6 -12 5 -15 2 -10 -10z"/>
<path d="M3690 5219 c0 -8 15 -10 45 -7 28 4 46 1 49 -6 2 -6 5 -3 5 7 1 14
-8 17 -49 17 -31 0 -50 -4 -50 -11z"/>
<path d="M4232 5214 c-18 -12 -36 -15 -69 -10 -33 4 -44 3 -40 -7 2 -6 12 -12
23 -12 10 0 22 -8 26 -18 6 -15 11 -16 28 -7 11 6 17 16 14 22 -4 6 -3 8 3 5
14 -8 47 17 42 32 -3 8 -11 7 -27 -5z"/>
<path d="M3910 5210 c0 -5 6 -10 13 -10 6 0 29 -3 50 -6 30 -5 37 -4 37 10 0
13 -10 16 -50 16 -27 0 -50 -4 -50 -10z"/>
<path d="M4340 5180 c0 -5 23 -10 50 -10 28 0 50 5 50 10 0 6 -22 10 -50 10
-27 0 -50 -4 -50 -10z"/>
<path d="M4037 5075 c-34 -24 -48 -45 -29 -45 16 0 82 52 77 61 -8 12 -5 13
-48 -16z m23 1 c0 -2 -8 -10 -17 -17 -16 -13 -17 -12 -4 4 13 16 21 21 21 13z"/>
<path d="M5256 4947 c-3 -56 -9 -128 -12 -159 l-6 -57 -49 -10 c-113 -25 -184
-83 -231 -191 -50 -116 -46 -222 14 -294 41 -50 205 -131 318 -156 73 -17 190
-27 190 -17 0 2 -9 30 -21 63 -11 32 -63 182 -114 331 l-93 273 39 10 c49 13
69 43 76 114 4 43 2 61 -9 74 -9 9 -25 35 -36 57 -11 22 -29 45 -40 52 -18 11
-20 7 -26 -90z"/>
<path d="M5747 5032 c-9 -2 -27 -22 -39 -45 -11 -23 -28 -52 -38 -64 -14 -19
-16 -31 -8 -80 10 -65 34 -98 79 -107 16 -3 29 -10 29 -15 0 -5 -49 -154 -110
-330 -60 -176 -110 -322 -110 -325 0 -24 219 12 295 47 27 13 70 32 94 43 130
55 180 139 159 270 -24 159 -117 265 -257 295 l-50 10 -6 52 c-4 29 -9 97 -13
152 -6 89 -9 100 -25 97z"/>
<path d="M3851 4941 c-19 -15 -30 -31 -24 -34 10 -7 83 41 83 55 0 16 -25 7
-59 -21z m48 16 c-2 -1 -13 -9 -24 -17 -19 -14 -19 -14 -6 3 7 9 18 17 24 17
6 0 8 -1 6 -3z"/>
<path d="M4416 4960 c-16 -3 -31 -11 -34 -19 -3 -10 3 -11 29 -6 39 8 42 11
38 22 -2 5 -17 6 -33 3z"/>
<path d="M4193 4923 c-20 -3 -33 -10 -33 -18 0 -11 8 -13 33 -8 17 3 37 10 43
14 6 5 14 6 17 2 4 -3 7 -1 7 5 0 12 -6 12 -67 5z"/>
<path d="M3990 4881 c0 -5 -9 -7 -20 -4 -13 4 -20 0 -20 -9 0 -12 8 -13 50 -4
55 11 67 26 20 26 -16 0 -30 -4 -30 -9z"/>
<path d="M3791 4852 c-25 -3 -31 -6 -20 -12 9 -6 -1 -9 -31 -7 -31 1 -44 -2
-43 -10 2 -7 -3 -10 -10 -7 -16 6 -52 -31 -39 -40 5 -3 25 6 45 21 22 16 53
27 83 29 26 2 49 6 52 8 11 12 -6 21 -37 18z"/>
<path d="M4424 4685 c-18 -28 -12 -45 8 -24 12 13 21 49 12 49 -2 0 -11 -11
-20 -25z"/>
<path d="M2251 4621 c-8 -5 -12 -18 -9 -29 5 -17 0 -21 -27 -24 -18 -2 -45 0
-60 4 -31 8 -79 -15 -52 -25 8 -3 21 0 28 6 7 7 5 2 -5 -10 -15 -18 -16 -23
-5 -23 12 0 12 -2 0 -9 -7 -5 -11 -13 -9 -17 3 -5 2 -18 -1 -28 -6 -14 -17
-19 -43 -19 -19 0 -42 2 -51 6 -20 8 -27 -12 -27 -79 0 -41 -4 -54 -15 -54 -8
0 -15 -7 -15 -15 0 -8 7 -15 15 -15 12 0 15 -13 15 -57 0 -60 12 -95 24 -74 4
6 12 8 18 5 7 -4 8 -2 4 4 -4 7 -1 12 9 12 9 0 14 -4 10 -9 -6 -10 17 -8 46 4
13 5 15 0 14 -25 -1 -17 2 -33 7 -36 4 -3 8 -10 8 -15 0 -6 -4 -7 -10 -4 -5 3
-10 0 -10 -7 0 -7 18 -28 40 -46 29 -24 40 -29 40 -18 0 10 9 16 25 16 20 0
25 -5 25 -24 0 -13 7 -26 15 -30 11 -4 15 2 15 23 0 28 2 29 53 33 l52 3 -3
-41 c-3 -31 0 -43 12 -47 13 -5 16 2 16 38 l0 45 86 0 87 0 -7 -55 -6 -56 77
3 77 3 -3 53 c-2 47 0 52 18 52 18 0 21 -6 21 -50 0 -38 4 -50 15 -50 11 0 15
12 15 50 l0 50 50 0 50 0 0 -45 c0 -36 3 -43 16 -38 11 4 14 16 12 42 l-3 36
50 0 c47 0 50 -2 53 -27 2 -18 8 -25 17 -22 10 4 11 12 6 27 -7 18 -5 136 2
143 1 1 11 4 22 6 11 1 23 8 27 13 4 6 8 -18 8 -52 l0 -63 -30 0 c-16 0 -30
-4 -30 -10 0 -5 13 -10 29 -10 16 0 31 -6 34 -12 3 -9 11 -6 26 10 12 12 26
22 31 22 6 0 10 23 10 50 l0 50 36 0 c25 0 33 3 28 13 -6 9 -4 9 8 -1 13 -10
17 -10 21 0 3 7 6 2 7 -12 1 -24 1 -24 15 -6 9 12 15 42 15 78 0 42 4 58 13
58 8 0 14 7 14 15 0 8 -6 15 -13 15 -7 0 -13 23 -16 65 -2 36 -10 71 -17 77
-10 11 -11 9 -5 -6 5 -13 4 -17 -4 -12 -6 4 -21 2 -32 -4 -13 -7 -20 -7 -20 0
0 5 -11 10 -25 10 -23 0 -25 4 -25 45 0 31 5 47 17 53 14 8 13 11 -8 17 -13 5
-47 7 -75 6 -40 -2 -53 1 -58 14 -3 9 -4 20 -1 25 3 4 -2 10 -10 14 -11 4 -15
-2 -15 -24 0 -27 -3 -30 -34 -30 -19 0 -37 -4 -40 -9 -3 -5 12 -8 34 -7 l40 1
0 -52 c0 -52 -4 -58 -38 -54 -8 1 -21 -4 -30 -11 -12 -10 -14 -10 -8 0 4 7 1
12 -8 12 -12 0 -16 10 -16 37 0 35 -1 36 -15 17 -8 -10 -15 -29 -15 -41 0 -12
-5 -25 -12 -29 -7 -5 -8 -3 -3 5 6 10 3 11 -14 2 -29 -16 -26 -24 7 -19 27 4
27 3 23 -45 -2 -31 1 -52 9 -57 8 -5 7 -9 -5 -13 -9 -4 -13 -3 -10 3 4 6 -14
10 -45 10 l-52 0 4 55 c2 46 0 56 -14 61 -10 3 -23 2 -29 -2 -7 -4 -10 1 -7
12 2 13 -9 27 -40 47 -23 15 -47 27 -52 27 -5 0 -29 -12 -54 -27 -34 -21 -44
-32 -39 -47 3 -12 1 -16 -6 -12 -14 9 -51 -2 -51 -15 0 -6 3 -8 8 -6 4 3 5
-16 3 -41 -2 -35 1 -49 15 -59 10 -7 13 -13 7 -13 -7 0 -15 5 -18 10 -3 6 -30
10 -60 10 l-53 0 4 33 c4 24 2 28 -5 17 -9 -13 -11 -13 -11 3 0 9 5 17 10 17
6 0 10 7 10 15 0 10 10 15 28 15 l27 1 -27 17 c-16 9 -28 23 -28 32 0 8 -7 23
-15 34 -13 17 -14 15 -17 -20 -2 -25 -8 -38 -15 -36 -7 1 -13 -2 -13 -8 0 -5
-5 -10 -11 -10 -5 0 -7 5 -4 10 3 6 2 10 -4 10 -5 0 -12 -6 -14 -12 -4 -10 -6
-10 -6 0 -1 6 -8 12 -16 12 -11 0 -15 12 -15 49 0 30 -5 51 -12 54 -7 2 11 2
41 -1 39 -3 52 -2 47 7 -4 6 -22 11 -41 11 -30 0 -34 3 -37 30 -2 22 -6 27
-17 21z m907 -72 c-13 -7 -18 -23 -18 -54 0 -25 -3 -46 -7 -46 -5 -1 -30 -2
-56 -3 l-48 -2 3 51 3 50 53 1 c29 1 55 4 59 7 3 4 11 7 17 7 6 0 3 -5 -6 -11z
m-918 -49 c0 -27 -3 -50 -7 -51 -5 -1 -24 -2 -43 -2 -19 -1 -38 -6 -42 -12 -4
-5 -8 15 -8 46 0 31 3 59 7 62 3 4 26 7 50 7 l43 0 0 -50z m17 -37 c-3 -10 -5
-2 -5 17 0 19 2 27 5 18 2 -10 2 -26 0 -35z m-199 -43 c26 0 54 -5 62 -10 8
-5 10 -10 4 -10 -7 0 -11 -11 -10 -25 0 -14 4 -25 9 -25 4 0 2 -8 -4 -17 -8
-14 -21 -17 -60 -15 l-49 4 0 43 c0 24 -2 49 -3 57 -2 7 -2 10 0 6 3 -5 26 -8
51 -8z m694 -44 c-3 -48 -7 -55 -27 -59 -26 -5 -35 8 -35 53 0 30 13 45 45 53
11 2 20 5 20 6 0 0 -2 -23 -3 -53z m510 0 c-3 -25 1 -42 10 -47 8 -5 -11 -9
-49 -9 l-61 0 -4 53 -3 52 55 -5 55 -5 -3 -39z m-1022 29 c0 -8 5 -15 10 -15
6 0 10 -10 9 -22 0 -22 -1 -22 -9 -3 -7 17 -9 15 -9 -12 -1 -33 -1 -33 -51
-33 l-50 0 0 50 0 50 50 0 c38 0 50 -4 50 -15z m130 -35 l0 -50 -50 0 -50 0 0
50 0 50 50 0 50 0 0 -50z m214 19 c5 -14 6 -37 3 -51 -6 -21 -11 -24 -37 -20
-30 4 -32 7 -32 37 0 62 1 66 29 63 19 -2 30 -11 37 -29z m426 -16 c0 -27 -5
-55 -10 -63 -6 -9 -10 -10 -10 -3 0 7 -18 13 -42 15 l-41 3 1 43 c0 23 1 44 1
47 1 3 24 5 51 5 l50 0 0 -47z m132 7 c2 -23 1 -45 -2 -49 -3 -5 -29 -10 -58
-12 -48 -4 -52 -2 -53 19 -1 12 -2 28 -3 35 -5 32 15 47 63 47 l49 0 4 -40z
m-1135 -76 c-3 -3 -12 -4 -19 -1 -8 3 -5 6 6 6 11 1 17 -2 13 -5z m326 -1 c-7
-2 -21 -2 -30 0 -10 3 -4 5 12 5 17 0 24 -2 18 -5z m802 -104 c-5 -3 -30 -5
-55 -5 l-45 1 -2 48 -2 47 49 0 c33 0 51 4 52 13 1 6 4 -13 7 -43 4 -33 2 -57
-4 -61z m139 95 c3 -8 2 -13 -3 -10 -5 3 -9 -15 -9 -40 -1 -31 2 -43 10 -38 7
4 8 3 4 -4 -4 -7 -31 -12 -62 -12 l-54 0 0 50 0 50 50 0 c28 0 50 5 50 10 0
15 7 12 14 -6z m-769 -110 c0 0 -24 2 -52 4 l-53 4 0 48 0 49 48 3 47 3 5 -55
c3 -30 5 -55 5 -56z m-382 93 c-3 -5 -6 -25 -7 -46 l-1 -36 -55 -5 -55 -5 3
53 4 53 59 -2 c33 -1 56 -6 52 -12z m117 -37 c0 -49 -1 -50 -30 -50 -17 0 -30
5 -30 13 0 8 -3 8 -8 1 -4 -6 -14 -13 -22 -16 -12 -5 -14 4 -12 48 l4 54 49 0
49 0 0 -50z m130 0 l0 -50 -50 0 -50 0 0 50 0 50 50 0 50 0 0 -50z m210 0 c0
-49 -1 -50 -30 -50 -29 0 -30 2 -30 43 0 50 4 57 37 57 21 0 23 -4 23 -50z
m170 0 c0 -47 -2 -50 -25 -50 -23 0 -25 3 -25 50 0 47 2 50 25 50 23 0 25 -3
25 -50z m130 0 l0 -50 -50 0 -50 0 0 50 0 50 50 0 50 0 0 -50z m130 0 l0 -50
-50 0 c-27 0 -50 -4 -50 -9 0 -14 48 -19 61 -7 9 8 10 8 4 -2 -5 -9 -1 -12 11
-10 16 3 19 -5 22 -50 l3 -53 -53 3 -52 3 2 103 c1 75 -2 102 -11 102 -8 0 -7
4 3 10 8 5 36 10 63 10 l47 0 0 -50z m-694 -76 c22 -2 34 1 34 9 0 7 4 6 10
-3 5 -8 10 -36 10 -62 l0 -48 -49 0 -49 0 -4 59 c-1 33 1 57 5 54 5 -3 24 -7
43 -9z m172 1 c12 2 27 7 33 11 6 3 15 0 20 -7 8 -12 11 -12 19 1 7 11 10 -3
10 -47 l0 -62 -87 0 -88 0 3 49 c4 47 9 55 40 51 6 -1 12 4 12 11 0 10 2 10 8
1 4 -7 18 -11 30 -8z m248 2 c11 4 14 -6 14 -51 0 -48 -3 -56 -19 -56 -14 0
-20 10 -24 45 -6 42 2 93 10 68 3 -7 11 -9 19 -6z m125 -7 c16 0 19 -7 19 -50
l0 -50 -50 0 -50 0 0 50 c0 43 3 50 19 50 11 0 23 5 27 12 6 9 9 9 12 0 2 -7
12 -12 23 -12z m-697 -43 c-10 -63 -24 -69 -24 -11 0 52 6 68 21 58 5 -3 6
-24 3 -47z m76 -8 c0 -45 -2 -49 -24 -49 -20 0 -24 6 -30 46 -7 56 -4 63 29
56 23 -4 25 -9 25 -53z m903 24 c-1 -21 -2 -47 -2 -57 -1 -32 -18 -5 -26 41
-5 35 -4 42 12 46 10 3 18 5 18 6 0 0 -1 -16 -2 -36z m-756 -35 c-3 -8 -6 -5
-6 6 -1 11 2 17 5 13 3 -3 4 -12 1 -19z"/>
<path d="M2513 4163 c-15 -5 -18 -93 -4 -93 5 0 11 23 13 50 1 28 3 50 3 49 0
0 -6 -3 -12 -6z"/>
<path d="M7561 4590 c-16 -29 -19 -40 -9 -40 19 0 53 59 41 71 -6 6 -18 -6
-32 -31z"/>
<path d="M1621 4556 c-18 -19 -29 -36 -24 -39 12 -8 56 31 48 43 -3 6 0 7 9 4
11 -4 16 0 16 10 0 24 -13 20 -49 -18z m19 1 c0 -2 -10 -12 -22 -23 l-23 -19
19 23 c18 21 26 27 26 19z"/>
<path d="M4325 4556 c-38 -52 -46 -66 -40 -76 4 -7 19 5 37 30 18 25 27 45 22
50 -6 6 -13 4 -19 -4z"/>
<path d="M1660 4472 c0 -5 -13 -7 -29 -4 -25 3 -51 -12 -39 -23 9 -9 92 11 96
23 2 6 -3 12 -12 12 -9 0 -16 -4 -16 -8z"/>
<path d="M1496 4443 c-4 -4 -18 -8 -29 -9 -76 -3 -87 -5 -87 -18 0 -11 8 -12
37 -5 44 9 56 3 29 -17 -13 -9 -17 -17 -10 -24 12 -12 78 52 72 70 -2 6 -7 8
-12 3z m-16 -37 c0 -2 -8 -10 -17 -17 -16 -13 -17 -12 -4 4 13 16 21 21 21 13z"/>
<path d="M7487 4433 c4 -9 2 -14 -3 -10 -13 7 -47 -49 -39 -63 4 -6 11 -8 16
-4 5 3 7 10 4 15 -4 5 -2 9 3 9 9 0 32 43 32 60 0 6 -4 10 -10 10 -5 0 -6 -7
-3 -17z"/>
<path d="M1250 4399 c0 -5 -4 -7 -10 -4 -5 3 -25 3 -45 -1 -43 -8 -48 -32 -5
-26 16 2 28 8 25 12 -2 4 7 5 20 2 18 -3 25 0 25 12 0 9 -2 16 -5 16 -3 0 -5
-5 -5 -11z"/>
<path d="M4181 4361 c-11 -15 -17 -31 -13 -35 4 -4 3 -6 -3 -4 -5 2 -11 -1
-12 -7 -2 -5 1 -10 7 -10 10 0 60 64 60 77 0 17 -20 7 -39 -21z"/>
<path d="M8430 4381 c0 -7 -4 -10 -9 -6 -6 3 -3 -15 5 -40 9 -25 22 -45 29
-45 11 0 11 9 -2 48 -17 51 -23 62 -23 43z"/>
<path d="M985 4356 c-62 -16 -40 -30 25 -17 25 5 39 9 32 10 -7 1 -10 6 -7 11
3 6 5 10 3 9 -2 0 -25 -7 -53 -13z"/>
<path d="M805 4320 c3 -6 -1 -7 -10 -4 -20 8 -65 -3 -65 -16 0 -6 7 -10 15
-10 8 0 15 4 15 8 0 4 16 6 35 4 27 -3 35 -1 35 12 0 9 -7 16 -16 16 -8 0 -12
-4 -9 -10z"/>
<path d="M1333 4286 c4 -9 1 -13 -6 -10 -17 6 -62 -42 -48 -50 12 -8 83 53 75
65 -9 15 -27 10 -21 -5z m-14 -29 c-2 -1 -13 -9 -24 -17 -19 -14 -19 -14 -6 3
7 9 18 17 24 17 6 0 8 -1 6 -3z"/>
<path d="M576 4281 c-3 -4 -17 -6 -31 -3 -18 3 -25 0 -25 -12 0 -9 5 -16 11
-16 5 0 7 5 3 11 -4 7 0 9 14 5 24 -8 72 2 72 15 0 12 -37 12 -44 0z"/>
<path d="M7365 4230 c-9 -17 -13 -36 -9 -42 4 -6 3 -8 -4 -4 -6 3 -13 2 -16
-3 -3 -5 0 -11 8 -14 15 -6 43 47 38 72 -2 8 1 10 9 5 8 -4 10 -3 5 4 -10 17
-14 15 -31 -18z"/>
<path d="M354 4242 c3 -5 -8 -6 -25 -4 -23 3 -29 1 -28 -14 0 -11 3 -14 6 -6
2 6 9 9 15 6 13 -9 78 5 78 16 0 6 -12 10 -26 10 -14 0 -23 -4 -20 -8z"/>
<path d="M180 4211 c0 -4 -11 -6 -25 -3 -14 2 -25 0 -25 -6 0 -6 -9 -8 -20 -5
-11 3 -20 1 -20 -4 0 -12 47 -15 55 -4 3 5 14 7 25 4 14 -4 20 0 20 11 0 9 -2
16 -5 16 -3 0 -5 -4 -5 -9z"/>
<path d="M4060 4205 c-6 -8 -8 -20 -4 -26 4 -7 3 -9 -3 -6 -6 4 -18 -2 -27
-12 -13 -14 -14 -21 -5 -26 11 -7 36 16 59 57 13 22 -4 33 -20 13z"/>
<path d="M8491 4168 c1 -25 35 -92 42 -82 8 14 -3 55 -14 48 -5 -3 -8 5 -6 17
1 12 -4 24 -10 26 -7 3 -13 -1 -12 -9z"/>
<path d="M3480 4153 c1 -5 16 -25 34 -46 22 -25 37 -34 41 -27 4 7 -7 27 -26
46 -32 33 -49 42 -49 27z"/>
<path d="M1169 4143 c-1 -5 -1 -12 0 -16 1 -5 -2 -6 -7 -3 -11 7 -55 -38 -46
-47 9 -9 85 53 78 64 -6 11 -24 12 -25 2z"/>
<path d="M38 4083 l-38 -4 0 -289 0 -289 32 10 c18 5 54 9 79 9 l47 0 10 83 9
82 2 -85 1 -85 52 -19 c61 -21 144 -100 174 -163 21 -46 34 -55 34 -22 0 12 5
19 13 17 21 -8 20 -85 -2 -132 -18 -37 -21 -61 -21 -188 0 -80 3 -172 6 -206
l7 -60 48 -7 c27 -4 49 -11 49 -15 0 -4 -23 -11 -50 -15 l-50 -7 0 -84 0 -84
-30 0 -30 0 0 75 c0 65 -2 75 -17 74 -10 0 -94 -15 -188 -32 l-170 -32 -3
-503 -2 -502 107 0 c526 0 985 319 1166 810 59 160 72 241 71 440 -1 161 -4
184 -32 293 -32 121 -104 287 -163 374 -56 83 -164 206 -222 253 -31 25 -56
53 -57 62 0 10 -5 15 -13 12 -8 -3 -38 11 -68 31 -127 84 -305 154 -454 179
-91 16 -242 25 -297 19z"/>
<path d="M7252 4025 c-21 -43 -14 -76 8 -35 6 11 8 20 5 20 -3 0 4 9 15 20 19
19 20 40 1 40 -4 0 -17 -20 -29 -45z"/>
<path d="M3907 4003 c-32 -45 -23 -68 10 -27 37 45 46 64 30 64 -8 0 -26 -17
-40 -37z"/>
<path d="M2500 3985 c0 -25 5 -45 10 -45 6 0 10 20 10 45 0 25 -4 45 -10 45
-5 0 -10 -20 -10 -45z"/>
<path d="M982 3967 c-18 -18 -29 -36 -26 -40 8 -8 84 55 78 65 -9 14 -19 9
-52 -25z m28 10 c0 -2 -12 -14 -27 -28 l-28 -24 24 28 c23 25 31 32 31 24z"/>
<path d="M3630 3990 c0 -20 57 -73 69 -65 9 5 4 17 -20 41 -33 34 -49 42 -49
24z"/>
<path d="M8573 3972 c-8 -5 -8 -13 1 -31 15 -28 30 -13 18 18 -4 12 -12 17
-19 13z"/>
<path d="M6105 3949 c-10 -15 3 -25 16 -12 7 7 7 13 1 17 -6 3 -14 1 -17 -5z"/>
<path d="M6171 3914 c-12 -49 -10 -61 9 -49 7 4 10 18 7 31 -2 13 0 21 4 18 5
-3 9 6 9 20 0 42 -17 30 -29 -20z"/>
<path d="M7162 3859 c-7 -11 -10 -25 -6 -31 4 -6 3 -8 -3 -5 -13 8 -27 -23
-15 -35 4 -4 18 11 30 34 23 42 17 75 -6 37z"/>
<path d="M3795 3860 c-3 -5 -3 -15 1 -22 4 -6 3 -8 -4 -4 -12 7 -44 -33 -36
-46 3 -5 12 -4 20 3 12 10 20 7 39 -11 33 -31 42 -19 14 19 -17 23 -20 33 -11
44 11 13 7 27 -9 27 -4 0 -11 -4 -14 -10z"/>
<path d="M6197 3844 c-9 -10 35 -64 46 -57 6 3 7 1 3 -5 -3 -6 -2 -13 3 -16 5
-4 13 -2 16 4 9 14 -14 42 -28 33 -5 -3 -7 -1 -4 4 7 12 -26 46 -36 37z"/>
<path d="M2252 3795 c-19 -13 -29 -26 -23 -29 6 -4 27 4 46 17 23 16 31 26 23
29 -7 3 -28 -5 -46 -17z"/>
<path d="M5647 3774 c-4 -4 -7 -27 -7 -51 0 -32 4 -43 15 -43 10 0 15 10 14
33 -1 39 -12 71 -22 61z"/>
<path d="M6132 3715 c3 -14 1 -25 -3 -25 -5 0 -9 -11 -9 -25 0 -43 17 -27 27
25 9 42 8 50 -5 50 -10 0 -13 -7 -10 -25z"/>
<path d="M2101 3689 c-13 -11 -31 -24 -39 -28 -8 -5 -12 -13 -8 -20 5 -7 19
-2 44 16 20 15 39 29 41 30 3 2 0 7 -5 12 -5 6 -18 2 -33 -10z m29 7 c0 -2 -8
-10 -17 -17 -16 -13 -17 -12 -4 4 13 16 21 21 21 13z"/>
<path d="M3644 3659 c-15 -22 -24 -43 -20 -47 11 -10 58 47 50 60 -4 6 -2 8 4
4 6 -3 13 -2 16 3 3 5 0 11 -8 14 -9 4 -25 -9 -42 -34z"/>
<path d="M5402 3653 c-13 -46 -10 -65 7 -47 14 14 24 81 14 87 -5 3 -15 -15
-21 -40z"/>
<path d="M6337 3684 c-7 -11 49 -84 64 -84 16 0 9 16 -24 55 -19 21 -36 34
-40 29z"/>
<path d="M3927 3673 c-3 -5 10 -25 28 -46 41 -47 58 -31 18 18 -29 35 -39 40
-46 28z m54 -50 c13 -16 12 -17 -3 -4 -17 13 -22 21 -14 21 2 0 10 -8 17 -17z"/>
<path d="M7042 3641 c-13 -22 -18 -42 -13 -45 10 -7 22 7 45 52 25 49 -4 42
-32 -7z"/>
<path d="M1931 3567 c-6 -8 -7 -18 -3 -22 4 -5 2 -5 -5 -1 -16 9 -52 -14 -46
-30 6 -15 82 34 83 54 0 16 -15 15 -29 -1z"/>
<path d="M5650 3510 c0 -33 4 -50 13 -50 8 0 11 15 9 50 -5 65 -22 65 -22 0z"/>
<path d="M3536 3521 c-4 -6 -5 -11 -3 -11 3 0 -8 -14 -24 -32 -22 -23 -27 -33
-18 -39 18 -10 76 68 61 83 -6 6 -12 6 -16 -1z"/>
<path d="M6085 3500 c-4 -16 -3 -35 1 -41 4 -8 3 -9 -4 -5 -7 4 -12 1 -12 -8
0 -16 15 -22 23 -8 3 4 8 26 12 50 8 48 -10 60 -20 12z"/>
<path d="M4070 3510 c0 -6 15 -27 33 -47 44 -47 59 -27 16 21 -31 36 -49 45
-49 26z"/>
<path d="M6476 3512 c-2 -4 11 -24 30 -44 18 -20 36 -33 40 -27 8 13 -16 40
-29 32 -6 -3 -7 -1 -3 6 4 6 2 18 -4 26 -14 16 -26 19 -34 7z"/>
<path d="M6950 3471 c-6 -17 -11 -33 -10 -37 1 -4 -4 -10 -10 -14 -8 -5 -9
-10 -1 -14 14 -9 56 73 43 86 -6 6 -14 -2 -22 -21z"/>
<path d="M5363 3478 c3 -9 2 -19 -2 -24 -5 -5 -11 -21 -15 -36 -5 -22 -3 -28
10 -28 12 0 15 7 12 25 -3 14 -1 25 3 25 13 0 11 38 -3 46 -7 5 -9 2 -5 -8z"/>
<path d="M1727 3423 c-23 -16 -34 -30 -29 -35 12 -12 94 40 86 53 -8 13 -15
11 -57 -18z"/>
<path d="M4216 3352 c-7 -11 68 -85 77 -76 7 8 -50 84 -63 84 -5 0 -11 -4 -14
-8z m35 -29 c13 -16 12 -17 -3 -4 -10 7 -18 15 -18 17 0 8 8 3 21 -13z"/>
<path d="M6625 3350 c-7 -11 42 -80 56 -80 20 0 15 18 -17 52 -18 20 -36 33
-39 28z m50 -50 c10 -11 14 -20 9 -20 -5 0 -15 9 -22 20 -7 11 -11 20 -9 20 2
0 12 -9 22 -20z"/>
<path d="M3381 3311 c-20 -25 -28 -42 -21 -46 6 -4 12 -5 14 -4 1 2 14 19 29
37 15 19 27 38 27 43 0 19 -20 7 -49 -30z m33 14 c-4 -8 -11 -15 -16 -15 -6 0
-5 6 2 15 7 8 14 15 16 15 2 0 1 -7 -2 -15z"/>
<path d="M5658 3290 c5 -65 22 -65 22 0 0 33 -4 50 -12 50 -9 0 -12 -15 -10
-50z"/>
<path d="M1566 3305 c-18 -15 -24 -25 -17 -30 14 -8 43 13 35 26 -3 5 2 6 10
3 9 -3 16 -1 16 4 0 21 -15 20 -44 -3z"/>
<path d="M6042 3290 c3 -16 1 -30 -4 -30 -4 0 -8 -9 -8 -20 0 -11 4 -20 9 -20
10 0 23 58 15 71 -3 5 0 9 6 9 6 0 8 5 5 10 -13 21 -27 9 -23 -20z"/>
<path d="M6837 3265 c-20 -43 -21 -49 -9 -53 9 -3 28 37 23 47 -2 2 4 8 13 13
19 11 21 28 3 28 -7 0 -21 -16 -30 -35z"/>
<path d="M1522 3271 c4 -13 18 -16 19 -4 0 4 -5 9 -11 12 -7 2 -11 -2 -8 -8z"/>
<path d="M1376 3169 c-21 -16 -34 -29 -27 -29 7 0 9 -5 6 -11 -4 -5 11 2 34
18 22 15 40 34 41 41 0 18 -10 14 -54 -19z"/>
<path d="M4365 3190 c-3 -5 1 -10 10 -10 9 0 13 5 10 10 -3 6 -8 10 -10 10 -2
0 -7 -4 -10 -10z"/>
<path d="M6760 3182 c0 -18 67 -85 73 -74 4 6 -7 27 -24 46 -30 35 -49 45 -49
28z"/>
<path d="M3251 3141 c-20 -25 -28 -42 -21 -46 6 -4 13 -5 14 -4 47 63 55 78
47 83 -5 3 -23 -12 -40 -33z"/>
<path d="M370 3085 c-6 -19 -27 -58 -46 -86 -33 -48 -35 -54 -29 -107 9 -68
27 -112 56 -130 12 -7 23 -12 24 -10 7 6 18 368 12 368 -3 0 -11 -16 -17 -35z"/>
<path d="M5991 3063 c-5 -27 -6 -52 -2 -56 12 -12 17 0 26 49 9 60 -11 65 -24
7z"/>
<path d="M6730 3069 c-12 -23 -19 -44 -16 -47 8 -7 17 3 45 51 19 31 20 37 7
37 -9 0 -25 -18 -36 -41z"/>
<path d="M6906 3022 c-4 -6 8 -28 27 -48 44 -48 55 -30 13 21 -21 25 -35 34
-40 27z m55 -59 c13 -16 12 -17 -3 -4 -10 7 -18 15 -18 17 0 8 8 3 21 -13z"/>
<path d="M3128 2978 c-7 -13 -11 -27 -10 -31 1 -5 -2 -6 -7 -3 -14 9 -25 -14
-13 -26 6 -6 20 5 41 36 24 34 28 46 17 46 -8 0 -21 -10 -28 -22z"/>
<path d="M4900 2969 c-118 -21 -215 -89 -304 -213 -62 -86 -97 -116 -157 -136
l-53 -17 43 -31 c23 -17 48 -33 54 -35 18 -7 -30 -54 -80 -78 -24 -11 -41 -25
-38 -30 9 -14 87 -56 118 -63 25 -6 27 -9 15 -23 -20 -24 -88 -53 -127 -53
l-34 0 24 -26 c48 -52 118 -71 179 -50 21 7 43 10 49 6 6 -3 16 -33 22 -66 6
-32 12 -60 14 -62 2 -2 8 23 15 55 30 155 65 206 161 238 68 23 197 34 317 28
101 -6 102 -6 85 -25 -22 -24 -49 -39 -88 -49 -23 -5 -17 -7 30 -8 102 -1 175
48 228 153 l24 50 14 -40 c9 -28 13 -86 11 -201 -1 -90 0 -163 3 -163 7 0 73
218 90 298 36 176 3 305 -94 364 -20 12 -53 42 -75 65 -42 48 -105 84 -176
101 -67 16 -208 22 -270 11z"/>
<path d="M6627 2885 c-19 -39 -21 -55 -9 -55 13 0 43 59 36 72 -4 7 -3 8 4 4
7 -4 12 -2 12 3 0 24 -27 9 -43 -24z"/>
<path d="M7046 2852 c-2 -4 11 -24 30 -44 41 -46 56 -32 17 17 -28 35 -38 41
-47 27z"/>
<path d="M2987 2793 c-14 -20 -23 -41 -20 -46 7 -11 62 51 63 71 0 22 -16 13
-43 -25z m11 -13 c-22 -30 -35 -41 -22 -17 9 16 36 47 41 47 2 0 -6 -13 -19
-30z"/>
<path d="M6532 2710 c-7 -12 -10 -26 -6 -32 4 -6 3 -8 -3 -5 -14 9 -26 -24
-14 -36 9 -9 51 59 51 83 0 17 -14 11 -28 -10z"/>
<path d="M7192 2691 c-6 -3 4 -23 24 -46 22 -26 36 -37 43 -30 12 12 -52 85
-67 76z m33 -31 c10 -11 16 -20 13 -20 -3 0 -13 9 -23 20 -10 11 -16 20 -13
20 3 0 13 -9 23 -20z"/>
<path d="M1412 2648 c5 -14 85 -35 95 -24 11 11 -6 19 -41 20 -19 1 -32 4 -29
9 2 4 -3 7 -12 7 -9 0 -15 -6 -13 -12z"/>
<path d="M2876 2653 c-11 -11 -6 -24 6 -17 7 4 8 3 4 -5 -4 -6 -12 -9 -17 -5
-11 7 -38 -24 -39 -43 0 -23 16 -14 48 26 23 29 28 40 18 44 -8 3 -17 3 -20 0z"/>
<path d="M7500 2643 c-81 -12 -90 -15 -84 -25 4 -6 -1 -8 -13 -4 -12 4 -42 -5
-79 -24 -64 -32 -160 -111 -148 -122 3 -4 15 3 26 15 l19 22 -17 -27 c-9 -16
-13 -28 -8 -28 4 0 3 -5 -4 -12 -15 -15 -16 -31 0 -22 7 5 8 3 3 -6 -6 -10
-11 -9 -22 5 -7 11 -13 24 -12 29 0 6 3 5 6 -2 2 -6 9 -10 14 -6 11 6 2 24
-12 24 -17 0 -69 -94 -91 -163 -37 -123 -10 -333 50 -394 9 -9 15 -18 13 -21
-7 -8 62 -84 111 -123 28 -22 57 -38 65 -35 8 3 12 2 9 -3 -13 -20 136 -61
224 -61 63 0 167 23 211 46 30 15 30 16 12 36 -18 21 -18 21 8 5 24 -16 27
-16 60 9 19 14 33 30 31 35 -1 6 2 8 7 5 13 -8 83 75 76 92 -2 7 0 10 5 7 12
-8 47 61 65 132 24 90 16 278 -12 278 -6 0 -15 4 -20 9 -5 5 -3 6 5 2 16 -10
15 7 -3 50 -9 23 -19 33 -26 28 -8 -4 -9 -3 -5 5 10 15 -40 83 -96 129 -38 33
-37 21 2 -18 9 -8 10 -11 3 -6 -12 8 -17 2 -14 -17 1 -5 -3 -6 -9 -2 -6 3 -8
11 -4 16 3 5 -4 25 -16 44 -18 29 -34 40 -70 50 -3 1 -21 9 -41 18 -20 9 -65
21 -100 26 -65 11 -74 11 -119 4z m-30 -17 c0 -2 -9 -6 -20 -9 -11 -3 -18 -1
-14 4 5 9 34 13 34 5z m47 -2 c-3 -3 -12 -4 -19 -1 -8 3 -5 6 6 6 11 1 17 -2
13 -5z m278 -54 c3 -6 -1 -7 -9 -4 -18 7 -21 14 -7 14 6 0 13 -4 16 -10z m-26
-14 c9 -11 9 -16 -1 -22 -7 -4 -10 -4 -6 1 4 4 3 14 -3 22 -6 7 -9 13 -6 13 2
0 10 -6 16 -14z m-479 0 c0 -3 -15 -14 -32 -26 l-33 -22 28 26 c27 25 37 31
37 22z m635 -96 c3 -5 2 -10 -4 -10 -5 0 -13 5 -16 10 -3 6 -2 10 4 10 5 0 13
-4 16 -10z m25 -35 c0 -12 -19 -12 -23 0 -4 9 -1 12 9 8 7 -3 14 -7 14 -8z
m-804 -21 c-9 -8 -16 -20 -16 -26 0 -6 -3 -9 -6 -6 -8 9 14 48 27 48 6 0 3 -7
-5 -16z m-36 -82 c0 -5 -7 -17 -15 -28 -14 -18 -14 -17 -4 9 12 27 19 34 19
19z m-33 -94 c-3 -8 -6 -5 -6 6 -1 11 2 17 5 13 3 -3 4 -12 1 -19z m953 -23
c0 -5 -5 -3 -10 5 -5 8 -10 20 -10 25 0 6 5 3 10 -5 5 -8 10 -19 10 -25z
m-203 9 c-3 -3 -12 -4 -19 -1 -8 3 -5 6 6 6 11 1 17 -2 13 -5z m-137 -55 c0
-6 -4 -7 -10 -4 -5 3 -10 11 -10 16 0 6 5 7 10 4 6 -3 10 -11 10 -16z m-55
-19 c3 -5 1 -10 -4 -10 -6 0 -11 5 -11 10 0 6 2 10 4 10 3 0 8 -4 11 -10z
m-558 -57 c-3 -10 -5 -4 -5 12 0 17 2 24 5 18 2 -7 2 -21 0 -30z m950 15 c-3
-8 -6 -5 -6 6 -1 11 2 17 5 13 3 -3 4 -12 1 -19z m-10 -70 c-3 -7 -5 -2 -5 12
0 14 2 19 5 13 2 -7 2 -19 0 -25z m-917 -8 c0 -5 -2 -10 -4 -10 -3 0 -8 5 -11
10 -3 6 -1 10 4 10 6 0 11 -4 11 -10z m844 -58 c3 -5 -1 -9 -9 -9 -8 0 -12 4
-9 9 3 4 7 8 9 8 2 0 6 -4 9 -8z m36 -32 c-6 -11 -13 -20 -16 -20 -2 0 0 9 6
20 6 11 13 20 16 20 2 0 0 -9 -6 -20z m-845 0 c3 -5 1 -10 -4 -10 -6 0 -11 5
-11 10 0 6 2 10 4 10 3 0 8 -4 11 -10z m825 4 c0 -8 -19 -13 -24 -6 -3 5 1 9
9 9 8 0 15 -2 15 -3z m-785 -54 c-4 -6 -1 -17 5 -25 7 -9 8 -15 2 -15 -12 0
-24 29 -16 41 3 5 7 9 10 9 3 0 2 -5 -1 -10z m751 -28 c-17 -16 -18 -16 -5 5
7 12 15 20 18 17 3 -2 -3 -12 -13 -22z m-56 -22 c0 -5 -5 -10 -11 -10 -5 0 -7
5 -4 10 3 6 8 10 11 10 2 0 4 -4 4 -10z m-45 -36 c12 -12 13 -20 6 -27 -8 -8
-15 -6 -26 6 -8 9 -10 12 -3 7 7 -6 17 -10 23 -10 5 1 -1 10 -14 20 -13 11
-19 20 -13 20 6 0 18 -7 27 -16z m-570 -14 c3 -6 -1 -7 -9 -4 -18 7 -21 14 -7
14 6 0 13 -4 16 -10z m450 -88 c-3 -3 -11 0 -18 7 -9 10 -8 11 6 5 10 -3 15
-9 12 -12z m-245 -8 c0 -2 -7 -4 -15 -4 -8 0 -15 4 -15 10 0 5 7 7 15 4 8 -4
15 -8 15 -10z m37 10 c-3 -3 -12 -4 -19 -1 -8 3 -5 6 6 6 11 1 17 -2 13 -5z
m70 -20 c-3 -3 -12 -4 -19 -1 -8 3 -5 6 6 6 11 1 17 -2 13 -5z"/>
<path d="M1620 2601 c0 -13 48 -23 72 -15 14 4 18 2 14 -5 -4 -6 -2 -11 3 -11
6 0 11 6 11 14 0 8 -15 16 -37 20 -51 8 -63 8 -63 -3z"/>
<path d="M1834 2558 c-8 -12 -7 -13 49 -25 38 -8 47 -8 47 3 0 8 -3 14 -7 14
-5 0 -25 4 -46 9 -23 6 -39 5 -43 -1z"/>
<path d="M6437 2534 c-3 -3 -3 -13 0 -21 5 -12 7 -12 14 -1 15 23 4 40 -14 22z"/>
<path d="M2050 2507 c0 -17 78 -33 92 -19 13 13 2 18 -49 27 -34 5 -43 4 -43
-8z"/>
<path d="M2726 2454 c-14 -21 -26 -42 -26 -46 0 -18 21 -6 46 27 19 25 24 39
17 46 -8 8 -19 -1 -37 -27z"/>
<path d="M2260 2464 c0 -7 15 -15 33 -19 17 -4 40 -9 50 -11 10 -3 17 0 17 9
0 9 -18 18 -50 24 -39 8 -50 7 -50 -3z"/>
<path d="M2472 2419 c5 -15 84 -36 95 -25 12 11 -11 24 -56 31 -34 6 -42 4
-39 -6z"/>
<path d="M2690 2373 c0 -15 81 -36 92 -25 13 13 1 20 -50 28 -25 4 -42 3 -42
-3z"/>
<path d="M8196 2345 c-47 -14 -65 -40 -19 -29 66 17 72 19 65 30 -5 7 -19 7
-46 -1z"/>
<path d="M2895 2331 c-7 -12 2 -17 48 -25 56 -10 68 5 16 20 -53 16 -56 17
-64 5z"/>
<path d="M3110 2281 c0 -10 13 -15 68 -26 45 -9 41 12 -5 24 -47 13 -63 14
-63 2z"/>
<path d="M3325 2230 c-6 -9 5 -11 63 -14 9 -1 20 -5 24 -11 4 -6 8 -2 8 9 0
15 -5 17 -26 12 -17 -5 -23 -3 -19 4 4 6 -4 10 -19 10 -14 0 -28 -4 -31 -10z"/>
<path d="M6918 2028 c-22 -6 -38 -16 -38 -25 0 -8 3 -12 8 -10 4 3 26 10 50
16 23 7 40 16 37 21 -7 11 -7 11 -57 -2z"/>
<path d="M6713 1977 c-64 -15 -57 -36 7 -23 46 9 61 19 43 29 -5 2 -27 -1 -50
-6z"/>
<path d="M4310 1491 c-203 -88 -209 -91 -284 -161 -106 -100 -166 -241 -166
-391 0 -187 81 -313 254 -399 46 -22 92 -50 102 -62 32 -34 124 -74 237 -103
60 -15 111 -24 115 -21 3 4 -11 215 -32 469 -21 254 -43 524 -49 600 -6 75
-13 137 -17 136 -3 0 -75 -31 -160 -68z"/>
<path d="M5556 1527 c-3 -17 -24 -259 -46 -537 -22 -278 -43 -535 -46 -572 -4
-38 -3 -68 2 -68 25 0 215 51 255 68 25 11 62 34 81 51 20 17 71 49 114 70
191 96 261 216 252 430 -4 90 -9 117 -36 181 -65 153 -168 243 -377 329 -66
27 -137 56 -157 65 l-37 16 -5 -33z"/>
</g>
</svg>
